<mxfile host="Electron" modified="2023-10-22T20:17:06.498Z" agent="Mozilla/5.0 (Windows NT 10.0; Win64; x64) AppleWebKit/537.36 (KHTML, like Gecko) draw.io/21.7.5 Chrome/114.0.5735.289 Electron/25.8.1 Safari/537.36" etag="DwhYphTaquczDvetVnG2" version="21.7.5" type="device">
  <diagram id="PHjEE_tYsPn7fcCQc_cB" name="Page-1">
    <mxGraphModel dx="232" dy="316" grid="1" gridSize="10" guides="1" tooltips="1" connect="1" arrows="1" fold="1" page="1" pageScale="1" pageWidth="827" pageHeight="1169" math="1" shadow="0">
      <root>
        <mxCell id="0" />
        <mxCell id="1" parent="0" />
        <mxCell id="JnsWyKzn2ELdosJl2_cm-22" value="" style="rounded=0;whiteSpace=wrap;html=1;strokeColor=none;" vertex="1" parent="1">
          <mxGeometry x="90" y="820" width="320" height="120" as="geometry" />
        </mxCell>
        <mxCell id="-3zsU6iHSjf4ZmtfOCPX-10" value="" style="rounded=0;whiteSpace=wrap;html=1;strokeColor=none;" parent="1" vertex="1">
          <mxGeometry x="510" y="510" width="160" height="100" as="geometry" />
        </mxCell>
        <mxCell id="-3zsU6iHSjf4ZmtfOCPX-4" value="" style="endArrow=none;html=1;rounded=0;startArrow=oval;startFill=0;fillColor=#f5f5f5;strokeColor=#8A8A8A;exitX=1;exitY=0;exitDx=0;exitDy=0;dashed=1;dashPattern=1 1;" parent="1" edge="1">
          <mxGeometry width="50" height="50" relative="1" as="geometry">
            <mxPoint x="588.2842712474635" y="531.7157287525366" as="sourcePoint" />
            <mxPoint x="560" y="560" as="targetPoint" />
          </mxGeometry>
        </mxCell>
        <mxCell id="-3zsU6iHSjf4ZmtfOCPX-5" value="" style="endArrow=none;html=1;rounded=0;startArrow=oval;startFill=0;fillColor=#f5f5f5;strokeColor=#8A8A8A;dashed=1;dashPattern=1 1;" parent="1" edge="1">
          <mxGeometry width="50" height="50" relative="1" as="geometry">
            <mxPoint x="520" y="560" as="sourcePoint" />
            <mxPoint x="560" y="560" as="targetPoint" />
          </mxGeometry>
        </mxCell>
        <mxCell id="OsGpNBEIPA-UDgHcJY4G-56" value="" style="rounded=0;whiteSpace=wrap;html=1;fontFamily=Roboto Condensed;fontSource=https%3A%2F%2Ffonts.googleapis.com%2Fcss%3Ffamily%3DRoboto%2BCondensed;fontSize=6;strokeWidth=0.5;fillColor=default;strokeColor=none;" parent="1" vertex="1">
          <mxGeometry x="80" y="752" width="120" height="36" as="geometry" />
        </mxCell>
        <mxCell id="OsGpNBEIPA-UDgHcJY4G-55" value="" style="rounded=0;whiteSpace=wrap;html=1;fontFamily=Roboto Condensed;fontSource=https%3A%2F%2Ffonts.googleapis.com%2Fcss%3Ffamily%3DRoboto%2BCondensed;fontSize=6;strokeWidth=0.5;fillColor=default;strokeColor=none;" parent="1" vertex="1">
          <mxGeometry x="80" y="717" width="120" height="26" as="geometry" />
        </mxCell>
        <mxCell id="6nMfZP-pIVt0r_uAwbMw-13" value="" style="endArrow=none;html=1;rounded=0;strokeWidth=0.5;fontFamily=Roboto;fontSource=https%3A%2F%2Ffonts.googleapis.com%2Fcss%3Ffamily%3DRoboto;fontSize=5;fillColor=#f5f5f5;strokeColor=#666666;dashed=1;" parent="1" edge="1">
          <mxGeometry width="50" height="50" relative="1" as="geometry">
            <mxPoint x="480" y="290" as="sourcePoint" />
            <mxPoint x="510" y="260" as="targetPoint" />
          </mxGeometry>
        </mxCell>
        <mxCell id="6nMfZP-pIVt0r_uAwbMw-10" value="1" style="text;html=1;strokeColor=none;fillColor=none;align=center;verticalAlign=top;whiteSpace=wrap;rounded=0;fontFamily=Roboto;fontSource=https%3A%2F%2Ffonts.googleapis.com%2Fcss%3Ffamily%3DRoboto;fontSize=7;spacingLeft=0;spacingTop=-5;" parent="1" vertex="1">
          <mxGeometry x="490" y="240" width="10" height="10" as="geometry" />
        </mxCell>
        <mxCell id="6nMfZP-pIVt0r_uAwbMw-11" value="T&lt;sub style=&quot;&quot;&gt;&lt;font style=&quot;font-size: 5px;&quot;&gt;1&lt;/font&gt;&lt;/sub&gt;" style="text;html=1;strokeColor=none;fillColor=none;align=center;verticalAlign=bottom;whiteSpace=wrap;rounded=0;fontFamily=Roboto;fontSource=https%3A%2F%2Ffonts.googleapis.com%2Fcss%3Ffamily%3DRoboto;fontSize=7;spacingLeft=0;spacingTop=0;spacingBottom=-2;" parent="1" vertex="1">
          <mxGeometry x="490" y="250" width="10" height="10" as="geometry" />
        </mxCell>
        <mxCell id="ITSz3YMHsk7jCdU6QYkX-1" value="" style="endArrow=open;html=1;rounded=0;endFill=0;startSize=6;endSize=3;curved=1;" parent="1" edge="1">
          <mxGeometry width="50" height="50" relative="1" as="geometry">
            <mxPoint x="240" y="200" as="sourcePoint" />
            <mxPoint x="240" y="120" as="targetPoint" />
          </mxGeometry>
        </mxCell>
        <mxCell id="ITSz3YMHsk7jCdU6QYkX-2" value="" style="endArrow=open;html=1;rounded=0;endFill=0;startSize=6;endSize=3;curved=1;" parent="1" edge="1">
          <mxGeometry width="50" height="50" relative="1" as="geometry">
            <mxPoint x="240" y="180" as="sourcePoint" />
            <mxPoint x="360" y="180" as="targetPoint" />
          </mxGeometry>
        </mxCell>
        <mxCell id="ITSz3YMHsk7jCdU6QYkX-3" value="" style="endArrow=none;html=1;rounded=0;startSize=6;endSize=3;curved=1;fillColor=#dae8fc;strokeColor=#6c8ebf;" parent="1" edge="1">
          <mxGeometry width="50" height="50" relative="1" as="geometry">
            <mxPoint x="240" y="150" as="sourcePoint" />
            <mxPoint x="350" y="200" as="targetPoint" />
            <Array as="points">
              <mxPoint x="290" y="150" />
              <mxPoint x="300" y="150" />
            </Array>
          </mxGeometry>
        </mxCell>
        <mxCell id="ITSz3YMHsk7jCdU6QYkX-4" value="" style="endArrow=none;html=1;rounded=0;startSize=6;endSize=3;curved=1;fillColor=#f8cecc;strokeColor=#b85450;" parent="1" edge="1">
          <mxGeometry width="50" height="50" relative="1" as="geometry">
            <mxPoint x="240" y="140" as="sourcePoint" />
            <mxPoint x="350" y="190" as="targetPoint" />
            <Array as="points">
              <mxPoint x="290" y="140" />
              <mxPoint x="300" y="140" />
            </Array>
          </mxGeometry>
        </mxCell>
        <mxCell id="ITSz3YMHsk7jCdU6QYkX-5" value="" style="endArrow=open;html=1;rounded=0;endFill=0;startSize=6;endSize=3;curved=1;" parent="1" edge="1">
          <mxGeometry width="50" height="50" relative="1" as="geometry">
            <mxPoint x="380" y="200" as="sourcePoint" />
            <mxPoint x="380" y="120" as="targetPoint" />
          </mxGeometry>
        </mxCell>
        <mxCell id="ITSz3YMHsk7jCdU6QYkX-6" value="" style="endArrow=open;html=1;rounded=0;endFill=0;startSize=6;endSize=3;curved=1;" parent="1" edge="1">
          <mxGeometry width="50" height="50" relative="1" as="geometry">
            <mxPoint x="380" y="140" as="sourcePoint" />
            <mxPoint x="500" y="140" as="targetPoint" />
          </mxGeometry>
        </mxCell>
        <mxCell id="ITSz3YMHsk7jCdU6QYkX-8" value="" style="endArrow=none;html=1;rounded=0;startSize=6;endSize=3;curved=1;fillColor=#f8cecc;strokeColor=#b85450;" parent="1" edge="1">
          <mxGeometry width="50" height="50" relative="1" as="geometry">
            <mxPoint x="380" y="140" as="sourcePoint" />
            <mxPoint x="490" y="180" as="targetPoint" />
            <Array as="points">
              <mxPoint x="420" y="140" />
              <mxPoint x="460" y="180" />
            </Array>
          </mxGeometry>
        </mxCell>
        <mxCell id="ITSz3YMHsk7jCdU6QYkX-9" value="" style="endArrow=none;html=1;rounded=0;startSize=6;endSize=3;curved=1;fillColor=#dae8fc;strokeColor=#6c8ebf;" parent="1" edge="1">
          <mxGeometry width="50" height="50" relative="1" as="geometry">
            <mxPoint x="380" y="141" as="sourcePoint" />
            <mxPoint x="490" y="181" as="targetPoint" />
            <Array as="points">
              <mxPoint x="420" y="141" />
              <mxPoint x="460" y="181" />
            </Array>
          </mxGeometry>
        </mxCell>
        <mxCell id="6nMfZP-pIVt0r_uAwbMw-4" value="" style="endArrow=open;html=1;rounded=0;endFill=0;startSize=6;endSize=3;curved=1;strokeWidth=0.5;" parent="1" edge="1">
          <mxGeometry width="50" height="50" relative="1" as="geometry">
            <mxPoint x="440" y="300" as="sourcePoint" />
            <mxPoint x="440" y="240" as="targetPoint" />
          </mxGeometry>
        </mxCell>
        <mxCell id="6nMfZP-pIVt0r_uAwbMw-5" value="" style="endArrow=open;html=1;rounded=0;endFill=0;startSize=6;endSize=3;curved=1;strokeWidth=0.5;" parent="1" edge="1">
          <mxGeometry width="50" height="50" relative="1" as="geometry">
            <mxPoint x="440" y="260" as="sourcePoint" />
            <mxPoint x="560" y="260" as="targetPoint" />
          </mxGeometry>
        </mxCell>
        <mxCell id="6nMfZP-pIVt0r_uAwbMw-6" value="" style="endArrow=none;html=1;rounded=0;strokeWidth=0.5;" parent="1" edge="1">
          <mxGeometry width="50" height="50" relative="1" as="geometry">
            <mxPoint x="495" y="258" as="sourcePoint" />
            <mxPoint x="495" y="260" as="targetPoint" />
          </mxGeometry>
        </mxCell>
        <mxCell id="6nMfZP-pIVt0r_uAwbMw-3" value="" style="endArrow=none;html=1;rounded=0;startSize=6;endSize=3;curved=1;fillColor=#dae8fc;strokeColor=#6c8ebf;strokeWidth=0.5;" parent="1" edge="1">
          <mxGeometry width="50" height="50" relative="1" as="geometry">
            <mxPoint x="470" y="290" as="sourcePoint" />
            <mxPoint x="520" y="260" as="targetPoint" />
            <Array as="points">
              <mxPoint x="480" y="290" />
              <mxPoint x="510" y="260" />
            </Array>
          </mxGeometry>
        </mxCell>
        <mxCell id="6nMfZP-pIVt0r_uAwbMw-7" value="" style="endArrow=none;html=1;rounded=0;strokeWidth=0.5;fillColor=#dae8fc;strokeColor=#6c8ebf;" parent="1" edge="1">
          <mxGeometry width="50" height="50" relative="1" as="geometry">
            <mxPoint x="440" y="290" as="sourcePoint" />
            <mxPoint x="470" y="290" as="targetPoint" />
          </mxGeometry>
        </mxCell>
        <mxCell id="6nMfZP-pIVt0r_uAwbMw-8" value="" style="endArrow=none;html=1;rounded=0;strokeWidth=0.5;fillColor=#dae8fc;strokeColor=#6c8ebf;" parent="1" edge="1">
          <mxGeometry width="50" height="50" relative="1" as="geometry">
            <mxPoint x="520" y="260" as="sourcePoint" />
            <mxPoint x="550" y="260" as="targetPoint" />
          </mxGeometry>
        </mxCell>
        <mxCell id="6nMfZP-pIVt0r_uAwbMw-9" value="ω" style="text;html=1;strokeColor=none;fillColor=none;align=center;verticalAlign=middle;whiteSpace=wrap;rounded=0;fontFamily=Roboto;fontSource=https%3A%2F%2Ffonts.googleapis.com%2Fcss%3Ffamily%3DRoboto;fontSize=7;" parent="1" vertex="1">
          <mxGeometry x="550" y="250" width="10" height="10" as="geometry" />
        </mxCell>
        <mxCell id="6nMfZP-pIVt0r_uAwbMw-12" value="" style="endArrow=none;html=1;rounded=0;strokeWidth=0.5;" parent="1" edge="1">
          <mxGeometry width="50" height="50" relative="1" as="geometry">
            <mxPoint x="491" y="250" as="sourcePoint" />
            <mxPoint x="499" y="250" as="targetPoint" />
          </mxGeometry>
        </mxCell>
        <mxCell id="6nMfZP-pIVt0r_uAwbMw-19" value="∠C&lt;sub style=&quot;&quot;&gt;&lt;font style=&quot;font-size: 5px;&quot;&gt;&lt;b&gt;PI&lt;/b&gt;&lt;/font&gt;&lt;/sub&gt;(ωj)" style="text;html=1;strokeColor=none;fillColor=none;align=center;verticalAlign=middle;whiteSpace=wrap;rounded=0;fontFamily=Roboto;fontSource=https%3A%2F%2Ffonts.googleapis.com%2Fcss%3Ffamily%3DRoboto;fontSize=7;" parent="1" vertex="1">
          <mxGeometry x="430" y="230" width="20" height="10" as="geometry" />
        </mxCell>
        <mxCell id="OsGpNBEIPA-UDgHcJY4G-6" value="" style="rounded=0;whiteSpace=wrap;html=1;strokeColor=none;" parent="1" vertex="1">
          <mxGeometry x="160" y="370" width="150" height="90" as="geometry" />
        </mxCell>
        <mxCell id="OsGpNBEIPA-UDgHcJY4G-3" value="" style="shape=image;verticalLabelPosition=bottom;labelBackgroundColor=default;verticalAlign=top;aspect=fixed;imageAspect=0;image=data:image/png,iVBORw0KGgoAAAANSUhEUgAAAtQAAADJCAIAAACMmDLLAAAAAXNSR0IArs4c6QAAAARnQU1BAACxjwv8YQUAAAAJcEhZcwAADsMAAA7DAcdvqGQAAAASdEVYdFNvZnR3YXJlAEdyZWVuc2hvdF5VCAUAAAAhdEVYdENyZWF0aW9uIFRpbWUAMjAyMzowNjowNyAxNDoyOTozMvTgUFsAACFiSURBVHhe7d15gE314/9xKkvTZGixLzH2ibIU0yjLpETIkqWSEj52WUqWj09SshQZRkWZCC0+iBLZPmlDSQnJWkZImIw9YX6v77zfzu927507d8Z0GPN8/HHnvN/n3HXOeZ/X+6zZk5KSsgEAALjlCvsXAADAFYQPAADgKsIHAABwFeEDAAC4ivABAABcRfgAAACuInwAAABXET4AAICruMhYxjh48GB8fLwt4PJSsmTJfPny2QLS6NSpUz/++KMt4PJy4403FitWzBaAtCB8ZIzXXnuta9eutoDLy6xZs9q2bWsLSKONGzdWqlTJFnB56dKly6uvvmoLQFqw2wUAALiKLR8Zw9nyMW3atJCQEFOJTC0+Pr5fv34aYMvHhXC2fAwYMKB69eqmEpldly5dDh06xJYPpBvhI2M44SMxMTFPnjymEpmas9YkfFwI52dcuHBhw4YNTSUyu+LFi+/evZvwgXRjtwsAAHAV4QMAALiK8AEAAFxF+AAAAK4ifAAAAFcRPgAAgKsIHwAAwFWEDwAA4CrCBwAAF+TDDz+sXLlybGysLXtYt25dhw4dSpUqtX//flsFwgcAAOmWmJj4yCOPNGnSZMOGDZ988omt9TB69Oi4uLhcuXIVKFDAVoHwAQBA+ixbtqxBgwZRUVHFixdX0e/tSlasWKHH5s2bmyIMwgcAAOlx9OhRZYuuXbvWr19fxWuuucbUOzZs2HDgwAENtGzZ0tTAIHwAAJAezZo1u/rqqzVw1VVX6dE3fCxbtkyPJUqUqFKliqmBQfgAAOCCJCQk6NH3luZvv/22HpVRTBEOwgcAABfEhI/8+fOborF+/frvvvtOA+xz8UX4AADggpjwccMNN5iiMX78eD0WKFDgjjvuMDVwED4AALggvuFj48aN06ZN00DTpk2zZ89uKuEgfACZTFJS0pQpU8qWLTtq1Chbdd7Jkye7d+8eERGxYcMGWwXgn+cbPoYPH54vXz4NsM/FL8IHkJls3bq1Ro0anTt33rZtm4Zt7Xnr1q2bNGnSzp07y5cvb6sA/MPOnTt39OhRDTjhY9y4cXfdddehQ4fCwsLq1q1rKuGJ8AFkGq+//vqTTz75n//8p2DBgiqWKVPG1DtWrVqlx8jIyBw5cpgaAP+0P/74wwyEhITocc6cOdu3bzen3TZu3NichQsvhA8g0yhWrNjHH3/cqFGjnDlzqnjbbbeZesfixYv1WK9ePVME4IJjx46ZAS2e48aNe+utt2JiYhYuXKga9rmkhPABZBoNGzbU48GDB+Pj4zVQvXr15Grr1KlTX3zxhQZq165tagC4IF++fOaQ0m7dur2TTMWlS5eGhITce++9Zhp4IXwAmczXX3+txzJlyoSFhZkaY9myZX/++WeuXLlq1KhhqwD88/LkyVO1alUNNGvWbOXKlaGhoV999VViYmKrVq1y585tpoEXwgeQyaxevVqPt99+uyk6Ro4cqcfq1aubnTIAXLNw4cJ169bNnTvXXG1dA3rs2bNn8kj4QfgAMhmz5cNr84b6W2r7NBAZGWlqALimQIECnndvmTdvnroHZnMI/CJ8AJnMN998o0fPLR9//fVXXFzcrbfequGoqChTCeCi+OKLL3755ZdevXrZMvwhfFx8p0+fPnDgwNmzZ20ZSNmOHTsSEhKuuuoqEzWMIUOG9OjR49tvv9XwZXYh58OHDx85csQWgMwgNja2cuXKbdu2tWX4Q/i4aL766qvWrVsXLFgwV65c+fPnz5EjR6FCherWrTt69GilZjsR8Hdmn0ulSpU025iauLi4m266KTExUSlWA163tsqMTpw4MWLEiBo1amihyJcvX1hYWGhoaIUKFZ544okPP/zwzJkzdjrgYjt27NiaNWtsIdm2bdvmzZs3efLkK65g9RoIv85FEB8f36pVq6ioqE2bNrVr127atGlafwwbNqxIkSKffvrpgAEDSpYsOWjQIDs14MEcbXrLLbeY4jvvvLN169auXbsuXbpURWdfzMmTJ81ApjN9+vTw8PBnn322dOnSI0eOfPfdd8ePH//ggw/u2bNn6tSpTZo0UV7/7bff7NTAxaN5snLlyloGbTl5B2jnzp1NdLZVSAHhw23ffvttRETE7NmzX3rppR9++GHMmDGPPvroY4899u9//3vt2rVatZQoUUKTXdwrVGoRskO4xGgm0WNoaOjRo0f79eu3YsWKF198UTUrV67U40033aSu2ODBgwcOHPh/U2c2Dz/8cPv27QsVKqRFY+bMmfqCrVu37tWrl9L5/v37+/Tpo2kOHz7sde9QN7FowKFZ8eeff547d+6BAwdU1CLZokULxY6+ffuaCRAA4cNVR44cadSokVYPvXv3VsPqu11OM+7LL7+sgYt1b46ffvqpY8eO1113HcegXJrMLrkpU6bkz58/d+7ckydPNvUbN27U48SJE0uWLFmuXLlXXnnF1GciCuKzZs3KkyfP/Pnzfef/q6++euzYsRUrVtQXvCjXq2bRgBd1I+vUqbN79+7w8PBq1aqVKlWqZcuW5ox3pIrw4SrNl+rA5ciRI8AMevfdd+vx+uuvN0U3rV+/vkKFCm+++abWaldeeaWtxaXEbBjLmzfvnDlzXnjhBedW3WaGiY6O/u677x599FFTmYmoE/nss89qoGfPnsWKFTOVvrR0sGjg0rFkyRL1BLp27ar+pDoGmXHRu1gIH66aMWOGHpWXA1z2LiwsLCQkJDQ01JZd5FycqnDhwmYAl5qFCxcuW7YsPj7eXGrdsXr16m3bti1YsKBo0aK2KlOZN2/eiRMnNBB4Z3nx4sVZNHDpUE+yY8eOo0aNUuwwd5JDkLJ6+HjppZdcO7XkwIEDu3fv1kCqe6x37Njhe/1KF1x77bVmQB1rM4BLTb58+aKjo32vYVqwYMHSpUvbQkaYPn36l19+aQv/PHMWjwReOtTFfP/9923BRSwayLKGDx++f/9+W8g4WT18xMTEhIeHN2nSRL1JW/WPSUhIMAObNm0yAynRiuSi7NV2jnK9LCN8UlLS999///HHH9syAlq8eHGtWrVuueWWN954w4VzZ4JcOkJCQq677jpbcNHlt2gcPXpU4fKTTz5ZvXr1zz//fOrUKTsC+LuhQ4cWL178oYce8jqp+AKx2yXbuXPnPvzww/r165crV27ixIlaJu2IjKb/nxnYt2/fhAkTzHCqZs2a1a1bt759+z7zzDODBw8eMGBA7969u3TpsmHDBjtFtmy9evVSpSYYNGjQU0891b17948++siOy5btzJkzU6dOfeCBB2699dbrr7++RIkSd9xxx9NPP71ixQo7hY9Uz7VZtWpV+/bt9YL58+fXKkr90fXr19txf7djx44XX3xRU5oJfvvtN01csWJFfZKIiIg+ffro1zBTilrAkSNHVq1a9cYbb6xevbq+5t69e+249Nq+ffurr77avHlzvWOVKlX0v7YjEIQffvihU6dOhQsX7t+//z+6jdAcyyIjRoxITEw0w4FpUf3Xv/6lmV/zvOb8gQMH9uvXr0ePHub0H2Pp0qVaHPThNYEWkCeffFJPseOy6qLx559/6gfRu+jjNWjQIDIyslSpUtdee61+h+XLl9uJAA+nT59+5513atasWa1atbfeekuzkB1xIdQdzMp8D20LDQ1VE/Djjz/aKYKj1Zt5utpNW+VPeHi4mezKK6/s3LmzOhx2RMrUL+nQoYPnMW4KInFxcWp67BRJSTNmzFBTZa46pX7hmDFjtM4wo9TXV+gpXbr0lClT9FIrV66MjY2tUKGCpsyePbuCl5lMtm3b1rFjx+R3yFa0aNEHH3ywYcOGtWvX1tym9tROlJS0ZcsWNdBquV544YXPP/9c/WO1g3qKPqFaf+cF1amKjo723ISud1dgKlCggC2fpxXb1q1b9ZQDBw543SNewsLCtCYwrxm8Y8eOzZ8/Xx+sZMmS9oWSqZ9npwiCE++U/2xVVuJ7fUbNMI0aNUrTbyjOz7hw4UJb5c/MmTPNZFK+fHn95mfPnrXjUqD18SuvvKI+g31a8uVPYmJiFi1aZKdIStq8efO4cePUaJoJmjZtOm3aNDMqay4ayltml66+eLNmzfRFKleubF7QcH6fwEzLqS9oy7h8mRnDk2ZyZXT1RuwU6UL4SPG4+nr16s2bNy/VFtAIMnx88MEHZjKH1o5qy9Sn0aiffvrJTudjyJAhZvp8+fLZKh/169fXBJ999pktJyUdPHhQzWvevHnVqbJVyf766y81Oqq35aSk3r17O+dN+HJmsvfffz8kJOSmm26Kj483NYZaWzOlmn5To4b4jTfeUC/W3ONRxo4dqw+vL6tYoKZWPU4VzagaNWqofVcyU7OoIKWO4IIFCypVqmTG6u20mjEvGySzh16rJWUyc3tJUZfRjg4O4cN8fV9lypSZMGHCkSNH7KQBBRk+tFL0uguX5rSoqCjNmZqRtC4/fPiwnfTvDh06pNWweYoz+3lRRNBYrfKdBJBlFw29r5748ssv23IyRRznON+cOXOqX2tHpIzwkXWYGcPXFVdcoTS/bNkyO10aET5SDB+GJlAyUM/DPiEFQYYPGTp0aIC2TK1eixYt1AmzU5/3xx9/OCfI+N0qc/z48dDQ0DZt2thysokTJ2r6++67z5Y9rF27tlChQraQlPT7778nJCSoL2jeokmTJnaEh2+//dYc5+g7t6m10qpdo6655po9e/bY2mRqypNfMluuXLk+/vhjW5vM3IvE0LcbNmyYHZFMv2TBggXN2OnTp9va4MyZM2fnzp22kJRkrqeSP39+Ww4O4cN8/ZRoftO6J9VthEGGD9EqsGzZsmZiX1pq1EfXutM3hQwYMMBM07JlS1v1d88995yevnnzZlvOqouGPoyWgv79+9uyB4Uw84KiqGdrU0b4CEy91ri4uNq1a2vGyJEjR82aNZXXFW3t6EzFzBUBqJsXGxsbZG/EQfhIJXwYmoEeffRRtUr2aT6CDx+yceNGLbTqtZin+KX+lp36vMcff9yMGjhwoK3yYC425bUmaNeunSojIyNt2YNmFK1dbOE8c6Eq8dvC3pp8JzP1F23573r27Gmeq16drUr28MMPm3qvBtS49957zdg6derYKg9Or9Fvcxk8wkc6BH9brHr16n3wwQcpbSMMPnyI+vGaf/SCzp1rfBUtWnTTpk32Ccl27dplAr3W074LoD6Y2Vdiy8my7KKxffv2M2fO2MLfOfsog/lPET4CUMi75557zI/p6fbbb1c30k6UedhPnxr1Rrp16xZg+70XDjgNyunTp9XDqF69uuaemTNnqmhHpEtERITCys8//7x///4VK1YoEXfu3Fntl+cWkfHjx3veMkCcJmzatGnnzp0zw45Jkybdf//9Zo+14/jx43pctWrV2LFj1QSbSuPaa6/VOtUWgqBeo+n83XbbbabGi7Pn2FnZGM7RKtHR0WbAk7Mn21xazYszVi2mGcAlSPPwAw88UKpUqVGjRh06dMjWposyxxNPPLF8+fKjR49qRnr33XeHDBmi9b2zG0J+/fXXVq1aeS6DWus3atRIA8ouXkuNaFWqp3hdbz7LLhrh4eGeB5D55XWkFNJKXcclS5bYgoevv/76Mr4K2bFjx7QaKl++vObn+fPn+66kvBA+0uabb7555JFHlPoHDRq0Z88eW5te6ovXrVu3R48er7/++nfffRcfH6+W147Llu3555+3Q8mqVKlijhTbu3fvJ598YioNzdNq/nxvKKAepBno169fiRIl9OJKTulbkTvH/6vbpKZcbbczbynDqtF3dmBv27bNDHjxe/KwVhtmwO9Y53pZF5j24IJdu3Y988wzRYoUefzxxzUz29r0ypEjx80339y6devhw4erITt48ODcuXP14mbspk2bvM5a0kJkBt544w0z4IiNja1Vq5YWH1tOxqLhRalR/0ENlC1b1qsPgzTZsmWLc9MDX5pvzW2YLmNB9kaya/GwgylTm+KchX+ZURfH9IHSQR0I/cRPPvmkmrbXXnuta9euqkxMTMyTJ4+ZIH06depkGlA1Omq5PLspb7/9tgnOzZs3nzNnjqmUxx57bO3atc6WYYcapgYNGvzvf/+z5fMKFCjQuHHjPn36VKxY0VYlU5uuFl8D6muqxTeVxuDBg82hagHkzp1bLaZ6pVph2Kps2dq3bz99+nQNrF692vfilW+++aY5j2DkyJHOnnuHFmNzj4+GDRuq/2oq00G/odYHinppulSOfk9zZJ/+I6YmS1ELsmPHDltIu8jISC0aLVq02Lx5s/kZ9R90jnJIn61bt1arVk0dLA0PGzZs6NChpt4oXbq0+cD6x0VERJhKrVDVj//vf/+rRcbUGCwaXgYOHKg3yp49++effx4VFWVrU6avs3v37qZNm2qxslVItn79eueKeX5p5rzjjjtsITOYMmWKHUq7nDlzPvTQQ2oKnBtx/3//t+8lZSdOnJg9e/ZFvIdkpqAG0WkHgznmIzD95k7g8NpB+Oeff16ffGML9QvVFzSVhw8fVtPmtTvZcfbs2UmTJnm1pIbCjRplO12yADu2TbSStm3bajKHGmX1F9XhUzy1k/6ds5lRLayt8uD0U9Xw2SoPP/30kxmrFtZWpcsFHvORuVqKS0qxYsViYmLMcDBHEqTK2XvSs2dPW3WeuSOjqKWzVcnHouoz+D0ehUXDYXYzKXm8/vrrtio15piPO++8M/lTAKmIjo72OuA6lS0fyrZm698111yT6tV1MiOTFWwh7UJDQx955BG1g5999llGbfkQ9bHUcl199dXmbheenn766TFjxmhg3LhxamQ1oMZdvUD9XxVBkifxb9u2bcuXL1+2bNmnn37qbArLmzevGkfnoo0BunfqsZmApRjreUmGVF0GWz7q1q174fsRMp3jx49fyO3jFfg0F/Xo0aNAgQIZteVD5s6d26JFCw1oKejfv7+pNJTCCxUqdOrUKQX0ffv2qb3S5y9SpMhTyexE/mTlRePMmTNqUtSY6PvOmDHDHDoTDLPlo06dOs55QDBOnjypXqIt+JMzZ86QkBBbyAy0ZNmhdNHy2KFDh27dunmfY5EcQVIUHx9vJrtcD/g3+T0dvC51EOTZLl26dJk3b54tpMx8qnvuuceWPfzyyy/muNSyZcuamnLlyqltMsPB0Gp4yZIlzv2xPHtdWt2aSt/u3bRp08yoiIgIWxWcy2DLx+U68wcW/NkuXtTWaIZ0Lnfh/IyBt3z88MMP9evXt4WUxcXFmVfzOzs99thjZuy7776roh6V4IM/vyCrLRpr1qwx+6fatGnz+++/29rgmDaKs118eR2Q52vq1Kl20kzCfu60q1KlihZY9QfsC/0dB5ymjVb8jRs3Xrp06datW9Wrc243FaRdu3atW7fOFlKg3rm5/5xzbq2nEiVKmO6jPoAaypUrV27fvt05EcbLM88849sV01dQK+9cgtrrUP+UODvR1QX0vAgB4DBtzZ49e7S+TGusV2dx+fLlqc6N5nJhSt6+mwrEWRBeeeUVPU6aNKldu3bq05tKT1l80Thx4kTv3r1r1qx57NixxYsXv/POO+ZiJLhw6jT6Ob7hvKJFi6Y71mcWOXLk0HdUpNbKTv2BlE6bJ3wE67rrrnvqqad27ty5YMECvye/BUMtbEo3enCYM/ijoqLUHTE1Xrp3724GBg4cGBsb27x5c+csAC979+5NaUeDOUwsd+7cztUSxWxTkSNHjpgBR7Vq1Zyz+wYNGmQGAAmyrQlMi8a5c+ecDQx+/fLLL++9954GNNubGi9Vq1Y1c6k+zEsvvfTZZ5+ZXZO+svKioU5LxYoVJ06c2KdPn82bNzsXFEFGmTFjhufJ4Y6QkJDZs2cH3j+eqRUuXPj5559X53nWrFl+uweeCB+pU3/uzTffVH9u9OjRga8Mlqrjx48ru/heZN0xffr0CRMm6F1MI+tXgwYNzMdQW69ZOaXmVfR2S5cutYW/M/uJ+/fv77nxxjS78vXXX5sTibU+cPbpqrNoBtR4derUyfccP60/1Gv0Ol/x1Pm7ZfrdD+qMDXzG4IWcT/jHH3/oW2ggISEhyL4sglSwYMHnnnsuyLYmMHPSmbrjiSncVU7/x5YtW2qs0nmA9O+cc6uuQnR0dEpnjWbNRePMmTPt2rVT2ti1a1eTJk3y5s07cuRIBaZ+/fqpS9OxY0eFyGbNmt1///3t27e3z0Ha3XzzzWvXrm3YsKHZ4WvcddddysTObYYuM/p277//vuarwYMH+96lyD+7+yUFWfmYD/Xn2rRp89VXX9lJAwrymA/n7PwHH3xw8eLFztV2T548uWrVKnNRvKioKK/bQ/hSk2FeR109W+WPuepR3759jx49aquS715hNkp7XYvdcNKVWl4tJ2pzPS9B7TSyEh4ePmrUKHUu1XlatGiRVkKFChWqXLmy5/UT9+3bV6pUKTO9nqtG1o5IduzYMbV0Zmy9evWcA2gczo5tfQzN1rY2aIoaO3fu9Nx71bNnT/WeVW+nCIhjPszX96tWrVpqa4K5XHSQx3xMnTrVTFakSJExY8Yo0NgRSUm//vrr+PHjtaZUlzE2NtbWpkCLknOrl48++sjW+siai4Y5vjUYziFlKeGYj2A4V6PRL2+rMiHzFfwKCQlR2nbuY5omhA8/4UMthdoLrztOBRZk+Hj66aedW4eLcnHhwoVVYzbqRkREqAlWj8pOnTK1XCZTv/3227bKH+fQOTWX6ixqNaw+jb6d3nHy5Ml+1xzLly83Z/Mat99+u/qIdlyy9957T69gR3vQs5R5nVZy4sSJfi+OVLJkSY1Vt8DvxvmcOXPqA5hXEKeFNa688sogD61ds2aNc2Unv7TMpHqEHeHDfH1PWv136NBBPX47URCCDB/6lzVo0MBzngkNDS1TpoweNay5Re+7fft2O3VA5qb5SgABFqWsuWgEf9K4fgf7nBQQPoLxxRdfmN8z8Mx/iTNfwYuWr7Fjx6Z0u8dgBHuqrdrfwD2hTMqcMGYLyf25Xr16qc/ht3UIIE0XGVP78s0336i/oi6dijfccEOFChXuvPNOv5ccSMk999yzfv16vUKAU6DVhq5evVoLgCY7ePCgOklqzcuVK6fW1rmUiC/1BbUm2Lt374033hgdHa1Wz4447+zZsyuSme3P+g3r1q1bp04dz9c8ceKEOnNaV6klVU7SbKZu36lTp1Sp76thc3kSMT+1XlNjRSsD5x1VqSZbqx99Rz1Fr6mXMmujwPTF9X0V6TS9nqvPoCyiVzt9+rRG6aX0WKBAAWdHvl/OqbaX68wf2EMPPeR5qXL1+3v06KEE4HdndgDOz6j21xwrHYAWnyVLluzcuVNLx4EDB/ReBQsW1CozKipKM4adKDWa5yMjI2NiYlI6EFuy5qKRkJCgiTWlaObXW+t30EtpQEHNUFGPGqsfxD7NH9NyKnw4/S74+vLLL7VO0UAwM/8ly7Od1PC9997bu3dvPQZuP1On2S6ALLLlQ2umjh07al1ua9MuyC0fGah06dJ+70eFjMKWD/P1tT5esGCBVkh2RBoFueUjA82cOVOrYc/9KchwbPkIxuW05SMsLKxPnz5Bbn0MRlY/4LRkyZIvv/yyujJTpkxx7v906Vu1apW6hlrybRnIaGprevbsuWXLlqVLlzZu3PhCezkuiouLe/zxx4PZQgYgVREREZMnT9ZacuzYseHh4bb2gmX18LFy5cq+ffv6vRLApWz8+PGtW7fOf/4IfCDDvfrqqzExMWXLlrXlTEJpacWKFb1797ZlABdm48aNnTp1yvCrsnKqbeaza9eu2bNn9+nTx5YBnDd69Oj77rsvA/tnAP4JhI/Mp2vXrrVq1apataotA0i2Zs2auLi4wHdyAXApIHxkAtu3b1eraoYHDx68aNEi5wrQQBY3Z86cU8nX49Ji0rp16+jo6Nq1a5tRAC5ZhI9MICYmJjIy8q677ipfvvyIESPat2/PTd4BOXToUKtWrUqVKnX33XdXrlz54MGD5iphAC5xhI9M4IMPPkhKSvr888+3bNnStGnTKVOm2BFA1jZ//vxz587t27dv+fLluXLlmjt3rnObNwCXMsLHpU6xY/To0d26dRsyZIhaWAWRAFcVA7KUevXqDR06tHv37hMmTNi5c6e5QQGASx/h41KXPXv2Nm3axMbGDh8+XE2trQWQfN3VYcOGTZw4sUePHmm99CqAi4jwAQAAXEX4AAAAriJ8AAAAVxE+AACAqwgfAADAVYQPAADgKsIHAABwFeEDAAC4ivABAABcRfgAAACuInwAAABXET4AAICrCB8AAMBVhA8AAOAqwgcAAHAV4QMAALiK8AEAAFxF+AAAAK4ifAAAAFcRPgAAgKsIHwAAwFWEDwAA4CrCBwAAcBXhAwAAuIrwAQAAXEX4AAAAriJ8AAAAVxE+MlhYWFh2XBYqVapk/6nICI0aNbK/LDK/3bt32/8rkC6EDwAA4KrsSUlJdtAfxdvixYtrYNasWW3btjWV8PX9998vWrTo8OHDtozLRb58+Zo2bVqhQgVbRhodPHhw6tSpCQkJgZsaZDqhoaE1a9asX7++LcPHl19+WatWLQ0sXLiwYcOGphIG4QMAgIxH+AiA3S4AAMBVhA8AAOAqwgcAAHAV4QMAALiK8AEAAFxF+AAAAK4ifAAAAFcRPgAAgKsIHwAAwFWEDwAA4CrCBwAAcBXhAwAAuIrwAQAAXEX4AAAAriJ8AAAAVxE+AACAqwgfAADAVYQPAADgKsIHAABwFeEDAAC4ivABAABcRfgAAACuInwAAABXET4AAICrCB8AAMBVhA8AAOAqwgcAAHAV4QMAALiK8AEAAFxF+AAAAK4ifAAAAFcRPgAAgKsIHwAAwFWEDwAA4CrCBwAAcBXhAwAAuIrwAQAAXEX4AAAAriJ8AAAAVxE+AACAqwgfAADAVYQPAADgKsIHAABwFeEDAAC4ivABAABcRfgAAACuInwAAABXET4AAICrCB8AAMBVhA8AAOAqwgcAAHAV4QMAALiK8AEAAFxF+AAAAK4ifAAAAFcRPgAAgKsIHwAAwFWEDwAA4CrCBwAAcBXhAwAAuIrwAQAAXEX4AAAAriJ8AAAAVxE+AACAqwgfAADAVYQPAADgKsIHAABwFeEDAAC4ivABAABcRfgAAACuInwAAABXET4AAICrCB8AAMBVhA8AAOAqwgcAAHAV4QMAALiK8AEAAFxF+AAAAK4ifAAAAFcRPgAAgKsIHwAAwFWEDwAA4K6kgOLj4+10AAAg7RYuXGjXqTiPLR8AAMBV2RVA7KA/iYmJI0aM0OO5c+dsFQAACE5YWFjHjh3LlStny0iWSvgAAADIWOx2AQAAriJ8AAAAVxE+AACAqwgfAADAVYQPAADgKsIHAABwFeEDAAC4ivABAABclC3b/wMde2CJUGPkkgAAAABJRU5ErkJggg==;" parent="1" vertex="1">
          <mxGeometry x="162.81" y="372.9145299145299" width="144.38000000000002" height="40.08339779005525" as="geometry" />
        </mxCell>
        <mxCell id="OsGpNBEIPA-UDgHcJY4G-4" value="" style="shape=image;verticalLabelPosition=bottom;labelBackgroundColor=default;verticalAlign=top;aspect=fixed;imageAspect=0;image=data:image/png,iVBORw0KGgoAAAANSUhEUgAAAn0AAABxCAIAAAAvTILIAAAAAXNSR0IArs4c6QAAAARnQU1BAACxjwv8YQUAAAAJcEhZcwAADsMAAA7DAcdvqGQAAAASdEVYdFNvZnR3YXJlAEdyZWVuc2hvdF5VCAUAAAAhdEVYdENyZWF0aW9uIFRpbWUAMjAyMzowNjowNyAxNDoyOTozMvTgUFsAAB8oSURBVHhe7d15fE1n/gdwOw0qqIYaS6hYa0lrCbFFqLErtRbDlBFLba3YxutlGRJblVKkqgnV1tLBNIktlmDEWko01tq3hIREGgz392m+T87vyL1JbhbHvcnn/cfNeZ5z7nZynuf7fM92c5tMplxERERkiDzqLxEREb18jLtERETGYdwlIiIyDuMuERGRcRh3iYiIjMO4S0REZBzGXSIiIuMw7hIRERmH983IlIsXLz548EAVKHupW7dunjwcmGZQVFTU1atXVYGyF2dn5+LFi6sCpR/jbqa0b98+KChIFSh7wYjq9ddfVwVKp2XLlnl5eakCZS9r167t3bu3KlD6cThPRERkHOa7mSL5brly5RYsWKCqyM5t3bp15cqVmGC+mxlavuvv7+/g4CCVZNeioqLkf8p8N5MYdzNF4m6tWrVOnTqlqsjOaQGDcTczuBqzn2vXrpUvXx4TjLuZxP3MRERExmHcJSIiMg7jLhERkXEYd4mIiIzDuEtERGQcxl0iIiLjMO4SEREZh3GXiIjIOIy7RERkZ6Kjo4cMGVKrVq24uDhVpePj49OiRYuxY8eqso1h3CUiInsSGBhYvXp1Pz+/8PDwCxcuqNok586dmzhx4t69e93c3FSVjWHcJSIi+4DsdvDgwT/++ONHH30kNea3Ot65cyceCxYs2K5dO6mxNYy7RERkHyIjIwcNGhQQEKDtQy5cuLBMaHbs2IHH1q1bm8+yEYy7RERkH5ydnWXvcb58+aQmWXB9/vz5nj17MNG9e3epsUGMu0REZGfu378vE8l+7SooKCgmJiZv3rydOnVSVbaHcZeIiOyMxN38+fMXLVpUaoSfnx8emzdvXrx4camxQYy7RERkZyTulixZUori8uXLgYGBmLDlnczAuEtERHZG4u4bb7whRfHZZ589e/YME127dpUa22QfcTcsLMzT0/O9995T5Vy5fH19y5Qps3nzZlUmyu4uXbrUs2fPihUrxsbGqqokGOO3b99+wIABqkyU3ZnHXYSJkydPYqJRo0alS5eWSttk63E3Pj7ey8vLzc0tJCTk7NmzUjlu3LgJEybcvn072U4GomzJZDLNnTu3Ro0a69atu3LlysOHD9WMJAsWLAgKCnJxcVFlouwuKioKj1rcRXH+/PlNmjTBtI3vZAabjrvHjh3DKL5BgwYffPABitKtbNy4Eb1M4vxcb7/9tkwQZVfXr1/v0KHD8+fPR40ahWKhQoXeeustmSWePXt25MgRTDRv3lxqiLK96OhoPDo4OOAxISGhT58+s2fP3rVrF4oSL2yZTcfdR48e/fzzzwMHDqxWrRqKjRs3vnXr1vDhw5cuXXrp0qXx48fb+M4Eosy7d+/eihUrvL29ke+i6Orqmjt3bpklDh06FBsbW7BgwYYNG6oqouxObst8+PBhbP9t2rSZMGHC06dPr169Wrt2bWdnZ1nGZtl03G3WrJlcE421iUd3d/fBgwejD/Ly8sKa9fX1TVyKKDurU6dO2bJlMYH+BY/169dPrP5/W7duxaObm1v+/Pmlhijbk4OMERERTZo0QUTw8PAIDg5Gje3vZAb7OK/qzJkzeLxw4YKLi4stXw1N9PJgaI/HRo0aSVHz888/47Fly5ZSJMoJPD098fj6668HBgb27t0b02gIuXPn7tevX+J8m2YHcff58+fh4eGFChXCuH769OmqlignefLkya+//oqJBg0aSI3YtWvXL7/8ggl3d3epIcoJ2rVrt2/fvhs3brz//vsoxsTEhIaGorJixYqygC2zg7gbERHx+PHjhISEYcOGFSlSRNUS5SQnTpx4+vRp8eLFK1WqpKoSzZ07F48Y5ieLx0TZHsaaWkTYsmXLs2fPRo4cKUUbZwdx99ixY3gsXbp0z549pYYop7F4cHfjxo0VKlTARK1atTgkpZzs22+/rVy5suS+ts8O4m5oaCgeP/zwwzx57ONotJWePHkSGRkpd1chSl1YWBge9UntlStXdu3a9eabb2K6cePGUpk9sGlQupw7d2737t12dKatHUSyAwcO4LF169ZStHf//e9/kbgjfS9YsCA6zfz585cpU6Zly5Zz5sy5fPmyWojoRXJSlXalUExMzJgxY2bPnh0SEoKi3C7A3rFpkDWQif3vf/9ThUQzZ85s165dt27dVNnm2XrcjY6O/u233zDRtGlTqbFfV69e7dGjB7rI8PDwfv36+fv7r1q1atq0aWXLlt2zZ4+3t7ezs/OkSZPU0kRJEGUvXLiAiTp16uDxwYMHAwcOnD9/ft68eSUeSx6MBBGZIibsDpsGWWnWrFnNmzePj49X5cRfuUckXr16tSrbBZNtW79+PT6ki4uLKtsYDLLw8WrVqqXKKTt69KgcgZs3bx76R1WbJCwsTA7UTZ06VVW9Ck+fPlVTOdhXX32FfwQgvKmqV23nzp3yke7fv79//35XV9dTp06hfvv27VKfkJCwb9++Nm3aIG7JU14561ejXTQNDGjUVA4m91GAtWvXqirDyb2ofH19pRgcHIzocP78eSnaC1vPd4OCgvBofs2ifXn48GH79u3j4uJGjRo1btw48wPVDRs2RPqCCbkzl8HQpyC9qFmz5uzZs1UV2RJtLyvSPmS6AQEBGOqhePr0aalHXjh9+nTUyz2t7IiNNw2IiIj4+OOPS5QowePNtmD48OHYSLy9vdFfYbNftGjR3r177e6GwbYedzGiL1SoEAbyqmyffHx87ty5kz9/fkyoKjNyGfgr+aWHHj16DBo06MyZM8l+VItshCR80K5du+PHj6PHkaJsLaVKlZozZw5aipOTk9TbERtvGidPnqxevfrKlSvRC+XNm1fV0qvj4eGBJjBlypR+/fpt2bIFiZk93i3Y1uNuYGBgbGxs3759Vdk+rVmzBo/oLtF6pcZcsWLFHBwcXsnVINr9BZPdcJ9sBALPwYMHz58/v3btWv0W0r9//2PHjl29ehXDJlVlb2y8aRQoUEAm2DRsR506dWbMmDFhwoR3331XVdkbW4+7WMX58uVThSxy7969zz///MGDB6r8kkVGRl67dg0TaWaTFy9efCV3PyhatKhMODo6ygTZmkaNGlncmebq6ppKxMqAuXPnyjlcBmDTIFuzevVquVb+pbL1uPsyxMfHjx07tmzZsv/4xz/Cw8NV7Usjv88Mab5X6dKls3yQYQ0t35VfochmTCbTiRMn5EQBStPixYtdXFzef/99rDGsOlX7crBpGC8iImLXrl0hISGnTp26e/euqqUkwcHBGOPWr18/ICDg5V0dkBPjrnj06NGKFStq1arVokWLjRs3vryTJsqXLy8Tt27dQqcm02lau3btsGHDMD6YMGHC5MmTvb29R40aNXToULQWtUSuXJ988gkqscCkSZM+++yz4cOHyy3yxblz51CDb1ehQgXkEzVr1uzevbufn9/t27fVEma0Xsai2NjYBQsWtG7d+i9/+Qu65m7dun3xxRfJLqQTjx8//s9//tOnTx/tHuUbNmxo1qxZmTJl8NxWrVphhUu9OHr0aOfOnStWrIh11b59+yy5JABJ21dfffXBBx+ULFmyXr16+DxqBqUF4Xb79u34RyDDfql7hl5V08BG+80333Tp0qVu3brYPNBAGjduPH78ePn1VotSbxpw8ODBAQMG4AXffPNNd3d3Ly+vkydPqnkvQu4+e/ZsLCkLoD1i4Ro1auCToJGOGTMGa0OWhISEBB8fH1dX11KlSr333nv4mjdv3lTz0gmfEN1d9erV0QA9PT1r167t5ORUqVKl6dOnx8TEqIUoEXok/DeRm2ETkl0yWezPk5pzGO1seD2s4n/961937txRC1nHyuuIKleuLO+SN2/eIUOG/P7772pGysLCwgYNGqQ/lQMdzapVq9Dq1BIm05o1a9BKCxYsiLklSpSYO3fur7/+KrNGjBiB53788cdbt27FNrRp0ya8mvQd06ZNk2Xg6dOnCHLancTbtm2L+Ic26ebm1r9/f7WQyfT8+XNfX98iRYogDULIPHTo0Ndffy0/convjmxSLWcyoYND36F97DZt2kilFPU+/fRTecrKlSvNz1jBx8CbygLWi4uL27x5M/om+Wyabdu2qSWsYIPXERmpXLly8vU1Dg4O2JC0TctKVq5G45sGNlfEewwpMAbFS+3du3fJkiWIRlgyd+7c+q3u/Pnz+OKJ75AL48UPP/wQ7b158+bvvvsuYphayGQ6e/YswjaiJjqQffv2ocVhC8RT8AknTpyoveCBAwcQ8PR71PHuGCuYnw331ltvYdCMp0RGRiLWqtokxYoVw/hAXtN66AHy5MmDFYLPgBFz06ZN9eepYWCK0KsWTZktXEf0sslPG+lhvXXt2jUkJEQtkRUYd19QoECBvn37Iq6oRdNiZdzFRi+vr0FgQDPGSBazIiIi1HJmpkyZIssXL15cVZmRO3mFhoaqssk0b9481CAPUOUke/bswRdctGiRFPG+qZwtosXdhw8fenh4oGbGjBlSIzBOR2eEejwi4Enl999/v2zZMu3mYngisl68C9ImrFV8SHxrmQVBQUEYBKBbR0aCruTYsWP4vtqPui9fvlxe03pyNK5q1aroc3/66Sd5HSQKarZ1GHfl65tr1qzZhg0bkCyqRVNl5Wo0uGlERUUh6Do6OmLrVVWJMABFW0a9KptMSJe1TdHc5cuXZbF169ZhA8bIFb2K1AjEYFlSa24Izxitzpo167XXXpNZCxYswIfHl8VgEQEYKTiKMqthw4aI+hiUNGjQAGMIZMZbtmx55513ZC7eDnmwvKw1oqOjkYVXqVJFPzR58uQJmqr2Ha25PDpnxl0NBmfYqmNjY9WimcC4axmGtP7+/mlu3FbGXcBmnUozRoPHIBRDb7V0EjQY7ayZM2fOqFqdR48eIQ3t1auXKieSkeyRI0dUWQcfGMN8mca3u3XrFl5BLkUHfeaqkbuvNWnSRJV10HHIE0ePHq2qEiHDlnpAyvvHH3+oGYk6duwos/DV0AlqXZiQH9gBdC6qymrIxS9duqQKJpNcDIoeR5Wtw7grXz8lZcuWnTlzZpp7hqxfjUY2jS+//BLL//Wvf1VlHWy0ZcqUUQWT6e7du/fv30eLkLfo1KmTmqGDkaKc8Lxz505VleTx48cY8GFW4cKFb9y4oWoTSacByD7lILpGfgNG4Nvpd00B1qR2zUxAQICqtcLChQuRZ1+5ckWVdSQ1h5YtW6qqlOXwuCswuB8xYgRGUeoJGcK4mxoEMGSNyUayetbHXTh9+jS2cm2nrkUYZaulkwwcOFBmTZw4UVXprFixArP0/c7vv/8uy+/YsUNV6aDfMd/pmkrcxShbZn377beqSgd9n8xFRquqEl28eFHq0emg+1O1SfSnC+pzEREfH//666/LXPPnpgvjbgakGXeF7Bk6fPiwepqZdK1GY5oGyAkHbm5uqqzz8OFD9LmqkES7M4nFuFu3bl3MwthRlV+k/SYd0lxVlUi7KjJZWBXaL+q0aNFCVeloabR2mMZKsuPanHYuBTINVZUyxl09T09PdI8ZOBwGjLtpQ/fduXNni/v30xV3NcgVdu3atXjx4iFDhqDpJhvsJ9umjx8/LvWIbeZ30cPTO3TooAqJtJ4Cn+rChQuqNlWpxF1JdiGlGxAiRZAF9MeHtPsreXh4qCqdp0+fylfOly+fqnqRdvf/9B5TTIZxNwOsjLua+vXr+/v7I71Tz0+SsdX4UpsGaJv6/PnzrdlhnkrcRUSXWWgjqupFfn5+skCyEUP//v2lfv/+/apKZ/LkyTJ35syZqkoHg2aZ26VLF1WVOVrc7d69u6pKGeOuuQoVKsyZM+fevXvq+dbJueczWw8jms2bN7dq1apGjRpLly6Ni4tTMzIKkaBly5YjRoxYvnz5L7/8gq3573//u5qX2N7UVKJ69erJlYs3b97UWp1AtoFIOXbsWFVOVLVqVdkZhS7DxcUFH3vWrFl79+5F7igLpMvu3btlIjIyEtsWQqYUAd1WbGysdkTK4kWfFq/9QCXWACYkLpqTw8Zgp3f5z1GOHDkiZ35OmjTpxo0bqjajXmrTADlTAcaNG4ceEy/+3XffZex6Ze3kZzSE69evo32ho5AadKwJCQnacdzz58/LRDIWW4d2jrfFuVneNOR3NQBxVyYoXa5cuTJ+/Hhs/4MGDcIWq2rTkhubiJp8UXR0tLe3typkL2ghGK+pQvoVLVr0b3/725gxY5ydndu3bx8UFITMUn8NQ8YMHjz466+/xgTaGxqt/nRNjElljIzRuv4KHHyMo0ePakNyDT4ShsP6GAkIco0aNUIXOXDgwGQXRWDALmchoauSX7wR6FAsXj6BLES/2Tg5OaEL++GHH7SziLEtyj7DNm3aJOsQBTZT9JUFChRAnqSqdHr27Llu3TpM4Ntl5pY0WIfoCtGVI4tSVVZYtmyZl5cXJoYOHZoDb8mLppGxIRpghWPDGz16tLu7u7Yake9qBw4yJgubBsJV27ZttdGkBttwx44d0aiT3eA6PDwcrRsTyHcx+JZKgcQUI1pVSIGcwdCjR48ZM2aoqly50AYDAgIwERYWpu3a0axcuVJOovbx8THvgc+ePSv3qW7Xrl1gYKBUZtitW7fw7e7fv+/p6bljxw5Vm7Jr167JsAD/EanJfjCc0g6TZYCbmxu2f/So+q3Ugj+TXkvSuzM2p0EY69u3rxyMSe9+Zovi4+O1fxUGPao2EYKTnCqFKBgVFSWVMTExaNXJDh1p0D579+6tjbj10NST7RVMaT8zclyphwMHDqAX00RERFy+fPn27dsWTz3T9jPLdUTm5DxqxF1VfhH6KXk6uk5VlSGZ3M+cyWiRk2G0NHXqVJnO/O76rG0aGEstXbrU4g9IIK5v2LBBLZcIm7rMMt/PLKMKQEOTRiEQqpFAIwNGPFOLvkjbz4y4q6p0ZIQBiLuqSgftTuYi7qqqjMLHk9+bqV27trbqUqcFhcaNG8sEWVSuXDmM0tRasyTFfPfGjRsy0Mt+8JXRF6hChiBdGz58OAZ9GLpmVb4LeB00WgRL/a9LivHjx8uJvp9//jnGU5hYtGjRtGnT8G/Szuo0h6C4Z8+ekJAQDPCPHz+u/a8xTp84caJMQ0r5LpJFhEbJ+dCVaJdapil75LtoPLGxsVKZc0iYVIX0K1KkyEcffTRy5MjQ0NCsynchy5sGnD9/Hk1j586daCP37t2TSkdHR4RM7e5UqeS7SGFlbNGnT5/vvvtOKq1hC/kuegOMttFOu3btig9j5b2vtXy3ZcuW1u9TtS+PHj1KtqcwXTDWx6YyYsSIVq1aqSqL0MZymsyk8skuYbTyvKqhQ4f++9//VoWUySktFnNEZJByjon2U8RVq1Y1v0I3FYg92jUDyd4ipXwXKiT9Es7GjRtVlRWyR76b+UTNHqX3vCpNlSpVFi9e/PDhQ3kdK1ejLTQNDM62b98u2yTo01Dkr1Jpnu/6+/vLrJo1a6oq67zafBdjcawcDEmdnJwwulW11tF6Tp5XZS7Ni1/0eF6VVRwcHIYMGYJGuHfv3rT33ZvBuFI79zIliItyQzLt6gg9xD+J8efOnUMfgY+BBFS7UEHv9u3b9evXVwUdhB90hXII1vrDluhTZALDcJkg0kPMw5a5bds2bJkY5ms/JGAlI5sGTJgwwTw3xVdo3bq19uPTVrYOrWkgJ9Zfd2vLQkND33nnHV9f30GDBiF11t/EhjJMbvZw8+ZNDJWsHLYy7qbh7bffXrhwIdbp8uXLtZaWXo8fP07pZq0auTKvSZMmvXr1kppktLstTpw4ccmSJUhSy5YtKzV6GM9qg2Jzcpu6ZHu3JF0AJCsyodHeNDg4+MCBAzJNBI6OjuPGjbt06VJgYCAyUVWbTkY2DUBDTumgAwameCxUqJB2WyhIpWmgt9Vu4jhp0iSZsFn4/Mgcmjdvjpxh//79K1asKFasmJpHGVIg6eaGR48e7d+/P4pqhhUYdy2TUTyCDQbRo0aNyuQ2+ujRoy1btpjfEk8TEBCwePHiihUr/vjjj6rKTNu2beWgKfKD9evXy6Esc3ivuLi4I0eOqLIOepwTJ044OTkhL1FViaTHgQ0bNsjE5cuX5bdisBJktGFK3B0dFhaWOP8FGOxrN64SiP0yYfHwLcgCaR5HyczFEtHR0XJdB75IDjwt+aVCZPLz80MMmzdvXuo3u0iTkU0D8HYpnbgrh0s//fRTfcquNY3Dhw/LVVLYqNCIpBLZs0wgzx48eLD55ortH2l0suuUUm8d2tzUN/50NY3du3dXq1YN/7JSpUqhFYeEhEyZMsU76fckEDOQ+Hbq1AmN3ZqzmgmjOowFr127tmbNmgz+PKXsbs5RUj++i1H82LFjL168qJZOlezgSvP4rnbVHbbvrVu3It5I/R9//HHw4EHJFTCcT/PYgI+Pj7yOq6urqjKDsQIWKFeuXLKjR0iC8SwHBweESVWVBF2bvCygfdarV++1115DditzsSq0Q18YLPfs2fOnn35CjoLQjid27NgRYxT9gSJ8u4ULF8ryJUuWNL/TvT5449OiI1MzkmjHd6dOnYq+SdVaDVEWSZh+n+TIkSMxkkC9WiJVPL4rX99cvnz5sAHv27dPLZoqK1ejkU0D5BAMGrj+LrvaFpvsppJCG1ggHjdq1AiRWH+bSS30QuXKlX19fUNDQ3/77Tds2NOnTy9Tpkzt2rX1N+i4detWpUqVZHk8N9nmjRFz165dZa6Hh4d2sFyj7crCx7hi6b6P5tC+rD8j8ocfflBPs4THd1u0aGH9LcpTwbj7/9BCMCSMj49Xy1nByrg7fvx47QQlyJMnDyIZamQvFhLKb775xjz8mEOjlXOFVq9erarMaOdlAD5Y9+7d+/Xr5+bmhk4TmxTarVpOB2+tnVoFyeIo3L59O6XNERvinj171HImk5Yf6OGtV61ahbnoU7Qdd3rJ7g2rxV2BQYB5B2TRoUOHLF46pcGw4+7du2rpFDDuytfXw7918uTJSPjUQlawcjUa2TRAG0EiiHp6emJw1qFDB0RHvOOKFSu0qK+H7FAuVRLIb5A0q3mJkIhrd23Tw7Ow0rRN98svv0RDUPN0nJ2dMffo0aPy60nJFChQQH+nvGSHkDAOTvMMsp07d6qlreDv76+eZkmOjbuFCxeW83vUQpmW4nVE2Zh2NrxAY0A8+OSTT9zd3VWV1dJ13ww0LeSIGKVev34dxTfeeKN69epNmza1eClhSpABINfEK1i8o4XAXLTV8PDwO3fuIMnD+NrFxaVx48baQNsibFVo1RiAIyfA8qpWBy+7adMmjOWjoqLQEePDd+nSRevIRGRkZKFE8vHw7k+ePEHugnAI8jOfmIsuBh0rtj3MTUhIwGIlSpRIfIE/oavCP0UiKOaim9P/eloq0G/is+GV0QXjA+Bd8CLyGTALo1Q8Ojk5WYz9miy84YM9QtOQk5hEw4YNR40a1a1bt3QdvoJ0rUbDmgY2gLCwsP3792Mx2YyrVKlStWpVxOBUTpZEcowh3c2bN0uVKtWqVSvzVYFtbFci2ReNdYihJIak+tfEgB6NSzZ+bJ/Y+LFBYvNGJb4vpuWyY5DwjNfEXMAQQXtHVKJ1FClSBN8RT8Fr4qVSvwoIX/nevXv4JFgSUCMN4c/uP3HMLfDKULp0aUdHR3miOa3nRNzN8Hm/Nq5Pnz7ff/+9KiSe3zNixAiMz7K4K5C1n6NoozZ0wf/85z/RnNSM9LMy381C2A4s3k6dsgrzXXx3dPT9+/fPzHVcxq9GNo2XLefkuxiao2/ftm0bRiRqRpbKoedVYRSPQQ2Gb3IMRtXavIMHDyIn0C7DJcpyFStW9PHxQd7m7++fmZuWGIxNg7IE0v0xY8ZcvHhRztJPfd9YhuXEuCvnHPXq1SuV/VG26YsvvujZs6fFY6hEWSI0NNTb29vKHfu2g02DssTSpUsXLFig3Wr+Jcmh+a49wnB+/fr1GIupMhElYtMg+8K4aze8vLzc3d1dXV1VmYgSsWmQfWHctV0XLlw4dOiQTE+ePDk4OFi7lR1RTsamQXaNcdd2LVq0yM3NrVmzZtWqVZs1a9aAAQP481tEwKZBdo1x13Zt2rTJZDLt27fv7NmznTt39vPzUzOIcjY2DbJrjLs2Ct3KnDlzhg0bNmXKlJCQEHQ0dnf2NdHLwKZB9o5x10blzp27V69eS5YsmTFjhoeHh6olyvHYNMjeMe4SEREZh3GXiIjIOIy7RERExmHcJSIiMg7jLhERkXEYd4mIiIzDuEtERGQcxl0iIiLjMO4SEREZh3GXiIjIOIy7RERExmHcJSIiMg7jLhERkXEYd4mIiIzDuEtERGQcxl0iIiLjMO4SEREZh3GXiIjIOIy7RERExmHcJSIiMg7jLhERkXEYd4mIiIzDuEtERGQcxl0iIiLjMO4SEREZh3GXiIjIOIy7RERExmHczQKnT5/OTdmFl5eX+r9SVihWrJhas2Tnypcvr/6plDmMu0RERMbJbTKZ1CSl38aNG8+cORMXF6fKlC3kyZOnePHio0ePLlCggKqidDpx4kRwcHBMTIwqU3bh6OjYpUuX6tWrqzKlH+MuERGRcbifmYiIyDiMu0RERMZh3CUiIjIO4y4REZFxGHeJiIiMw7hLRERklFy5/g/SK84BYEtxqQAAAABJRU5ErkJggg==;" parent="1" vertex="1">
          <mxGeometry x="171.48476519337018" y="430" width="127.03046961325968" height="22.534447513812154" as="geometry" />
        </mxCell>
        <mxCell id="OsGpNBEIPA-UDgHcJY4G-7" value="" style="rounded=0;whiteSpace=wrap;html=1;strokeColor=none;" parent="1" vertex="1">
          <mxGeometry x="320" y="370" width="150" height="110" as="geometry" />
        </mxCell>
        <mxCell id="OsGpNBEIPA-UDgHcJY4G-8" value="" style="shape=image;verticalLabelPosition=bottom;labelBackgroundColor=default;verticalAlign=top;aspect=fixed;imageAspect=0;image=data:image/png,iVBORw0KGgoAAAANSUhEUgAAAscAAAEBCAIAAAAbzZ9NAAAAAXNSR0IArs4c6QAAAARnQU1BAACxjwv8YQUAAAAJcEhZcwAADsMAAA7DAcdvqGQAAAASdEVYdFNvZnR3YXJlAEdyZWVuc2hvdF5VCAUAAAAhdEVYdENyZWF0aW9uIFRpbWUAMjAyMzowNjowNyAxNDozNTo0OCzCuYoAADAvSURBVHhe7d0HXNXV/8fxQJyo4SDFHLhzS5kLNDU1R5p7Vm5zaylqqZWr3JqaWQ7KbWYWjtwrV47M9VNz7y2ighPu/xPn+P1fAfUCX+By7+v5qOs55/u9g3u/432+08VisbwEAAAQZ676XwAAgLghVQAAAHOQKgAAgDlIFQAAwBykCgAAYA5SBeAs1tcqs+L1HGcWzdJ1ADAbqQIAAJiDVAEAAMxBqgAAAOYgVQAAAHOQKgAAgDlIFQAAwBykCgAAYA5SBQAAMAepAgAAmINUAQAAzOFisVh0EYBDW1+rzP3LF4t8OjxX4w910zMcHDEg5MwpN/e08l+y1Kkf37nt7p0vf4eeMuj4jEkXV/6ep1Wn7O82UiMDgIFtFQCeErT/77M/zwo5dezOv/+7uWdH0D+7r/65/tVa9WXQoRED//121N0TRw99PeBxaIgaHwAMpAoAT7myYWXRASOqrNxVKXBL5WXbslSsWnTAV2lezSmDcjRo8ea3c9zSpgu7F3r35DE1PgAYSBUAnhJ2/16O+s1V+cKKJbePHcn2znuqmr5AYc9yb2X0KSNl15SpVCMAGEgVAJ5SpN9QF9f/lgx3Tx0/MKxvwe79VLvBJZnrSy4u7jm9dR0AniBVAIiGxWI5MKxflorV0uUpoJueCDlz6uXXiiVjWwWAKEgVAKJxafXSoL07vaq9q+tPWMLDQ8+f8apeR9cBwAqpAkA0zv06zyVZMs/ylXX9iaB/dlksFq936uo6AFghVQCI7GHwrRu7t6XImDlZ6tS66YlT82bkbtEuddZsug4AVkgVACK7d+HsSxZLysyv6PoT9y5fDD64N1/E5bAAICpSBYDIHt4KksfHd26rquHw+KGF+w51c0+r6wDwNFIFgMhSe/23gyP0wtmQs6dUizjx4xSPwiWyVqmh6wAQBakCQGTuufKmy//aSxbL3/4dr+/cErR/z75BvR7cuJ6nVSc9BgBEh1QBIDIXV9cSQ79JlcXrzrEjOzs1/7tPx6xVaxXu/bkeDADPwD1LAWdh+z1LlbAH928fOeiWLn3a3PldXFx0KwA8G9sqAEQvWcpUGUqUSpenAJECgI1IFQAAwBykCgAAYA5SBQAAMAepAgAAmINUAQAAzEGqAAAA5iBVAAAAc5AqAACAOUgVAADAHKQKAABgDlIFAAAwB6kCAACYg1QBAADMQaoAAADmIFUAAABzkCoAAIA5SBUAAMAcpAoAAGAOUgUAADAHqQIAAJiDVAEAAMxBqgAAAOYgVQAAAHOQKgAAgDlIFQAAwBykCgAAYA5SBQAAMAepAgAAmINUAQAAzEGqAAAA5iBVAAAAc5AqAACAOUgVAADAHKQKAABgDlIFAAAwB6kCAACYg1QBAADMQaoAAADmIFUAAABzkCoAAIA5SBUAAMAcpAoAAGAOUgUAADCHi8Vi0UUASV/IudM7u7TUlafdv3zBEhaW3CODm3s63WQlfcEib4z5QVcAIFZIFYCj2dGh8c09O3TFZsUHj8tep7GuAECssAcEcDS5W7bXJZsl98jgVa2OrgBAbJEqAEfzSsVqqbPl0BXb5KjfIlmqVLoCALFFqgAcjYura64mrXTFBi7JkuVq9IGuAEAckCoAB5SjXlPXlCl15UX+27bh9aquAEAckCoAB5Q8vcertRroyot4N2+rSwAQN6QKwDHlatpGl54rbd6CmUqV0xUAiBvOLNXu3r27Y0eMT8ZDkla0aNGsWbPqiiOy5RTTogNH5mzQQlcc0e7du2/duqUrcAIeHh6lSpXSFSQ4UoV24MCB4sWL6wqcw9y5c1u0cOQV6qU1y/b266wr0XFLm77Kql1uqdPouiPy8/PbunWrrsAJ+Pr6btmyRVeQ4NgDAjisLJVrpMqaTVeik6N+M8eOFAASGNsqNGNbxf79+7Nnz64a4agyZswojw6/rUIcnz7x3ymjdSUSF5e3ftvsnsNbVx2U2lbRs2fPL774QjfBQfXu3TsgIIBtFYmLVKEZqeLMmTM5c+ZUjXBULi4u8ugMqeJh0M31NUuHP3yg61ZeqVit1ISZuuK4VKro16/fiBEjdBMcVOfOnadOnUqqSFzsAQEcWYoMGb2qvasrT4vRlbIAwBakCsDBRXs5CnfvvJnLVdQVADAJqQJwcC8XLu5RzEdXnsjVpJXaDQQAJiJVAI7Pu3k7XYqQLI179rpNdAUAzEOqABxf1rdrpsz8iq689FL2Oo3d0rjrCgCYh1QBOD7X5ClyWF1AM1fT1roEAKYiVQBOIWfD913ckkshc7mKab3zqkYAMBepAnAKqTyzZK1SUwrett11DEB8O3r0aN26dQcPHqzrVqZNm/buu++OHv2MS9jZMVIF4CxyNW2VOlsOT78qug4gkVgslvHjx5coUWLp0qXLli3TrU/cvn27U6dOy5cvL1mypG5KOkgVgOMLDg4+efLkpRTuKRu3OXnq1Pnz5x88iOZqmwASwIULF+rVqyeFxo0by2PUc7w3bNgQHh7u4eFRuXJl3ZR0kCoARyPdoIMHD06fPr1Vq1avv/66p6enLJ7y5s1btGhR39Yd8+XLlyNHDnd3d29v72rVqvXr1y8wMPDmzZv6yQDiWcqUKX/44YePP/64Tp06Uk2bNq1qN6xZs0YeZaibm5tqSUJIFYDj+N///te/f//cuXMXK1asQ4cOs2bN2rt37/Xr1/VgK2FhYWfOnFm7du2oUaPee+89SR6SMH788ce7d+/qMQDEj8yZM2fJkkUKjx49kkeJ+BHN/2/lypXy2LBhQ1VNWkgVQJIXHh4+f/58X1/fIkWKjBw5UuKCNKZPn75q1ap9+/adOnXqsmXLdu/efSLCkSNHNm/evHDhQskTbdq0kfyhXkEShlSzZs3atm3bo0ePRrwwgHikthGqWygbtm7dKvOpRI133nlHNyUppAogaVuyZEnx4sVbtGixbds2qWbLlq1r166rV6++du3amjVrJGR89NFHtWvXfuONN/JEKFiwYIUKFZo0aeLv7z9z5sz9+/dfvHjx+++/r1mzppubW0hISEBAgKSTVq1anTp1Sr0FgPigUkWmTJlUVZk+fbo8yvyYKlUq1ZK0kCqApOrcuXM1atRo0KDBoUOHpFqpUqXFixefPXt28uTJ1apVS5EihRrthby8vDp27LhixQp57pAhQ6QaFhY2a9aswoULf/XVV48fP9bjATCVShWenp6qKk6cODF37lwpJNHdH8JeUoXFYpGlmI+Pz/z581XLpk2b3nzzzW+++UZVAVj7/vvvX3vttVWrVknZz89vQwRJGMmSJVMjxILkiUGDBslybdSoUdJ/un///oABA8qVK8cOESA+RN1W8fnnnz969Ei6BLVr19ZNSY1dpIrTp09LN6tVq1b//PPPsWPHpGXz5s3Vq1ffvXt3mjRp1DgAlNDQUJlZOnXqJAUPD4+ffvpJ5heZg/TgOEudOrW/v78kiZYtW0pVZkPJ97/++qsaCsAskVLF77//LnOfFKpVq5YuXTrVmOQkfqpYtGhR//79pW+UL18+qRYpUuTatWtNmjQJDw+Xav78+SPGAvCf69evV65cedasWVKuUaPGkSNHPvzww/i4p7ks6ebMmbNy5crMmTPfuXOnYcOGw4cP18MAmEGligwZMsjjnj17JLvnzJlTykl394dI/FTh4+OzYMGCMmXKqLNrfH19O3To8P7778vXvXbt2hIlSqjRAFy9erVKlSo7d+6Uct++fVesWKHOT4s/77zzzt69e9VsOHDgQOkAqHYAcSd5XR6lb7B+/XqZv6ZMmbJ8+fJkyZLVrVtXjZAUJX6qUJsoxOnTp729vdesWZMrV64xY8akS5fu7bffViEOwLVr1ypVqnTgwAFXV9fvvvtu5MiR8bGJIqrs2bNv27ZN0oyU5U2HDRum2gHEkbr+VdeuXaUvHRAQcP/+/V27dr311luRzgpJWuzlaM1z584FBwfnz59/xowZEil0K4AIDx8+bNCgweHDhyVSzJw5s1OnTnpAgkiTJo10oWrVqiXlQYMGff/996odQFxIgJDH8uXL79ixI2vWrKtWrbJYLK1atVJDkyh7SRX//POPPP71119ffPFF8uT/3a8ZgKFbt25btmyRwrRp0xJloZMqVapFixaVLl1ayt27d9+8ebNqBxBrgwcPlrXe1q1b1cmlS5YsyZQpU9OmTdXQJMq+UoWvr29SvJkKEK/mzZsnYUIKPXr0aNu2rWpMeGnSpAkMDMyRI8ejR48++OADdaAZgFiTsK6SuggNDf3jjz/at2+fMmVK1ZJE2UuqUJcFbNOmjaoCUC5cuNC1a1cp+Pn5jR07VjUmlixZssiCT5Z6Z8+e7dmzp24FEGe//vrrw4cPO3furOtJll2kCovFsn37dldX1+rVq+sm2I2wsLCDBw9+++23b7/99k8//aRbkVC6d+9+69Ytd3f3uXPn2sMNDIsUKfLll19KYc6cOStWrFCNAOLom2++GTx4cK5cuXQ9ybKLVHHo0KHg4OCSJUu+/PLLusk5BAUFFShQQBbT8reXLl26fPnyvr6+5cqVK1WqVIkSJQoVKpQvXz4fH5/33nuvd+/ehw8f1k9LQM2bN5f1WbFixbp167Z+/Xr5wHoAEsTq1auXLFkihfHjx6sT2e2Bv7+/TKJS6Nu3L9fzBmJKFqQff/yxrkQIDAxMliyZzFC6npTZRaqQ1ZU8li1bVlWdh4eHh6w2fvjhh+zZs+/atWv79u379u2TJFGjRg3poYp69eqFhYXJBDdu3LjChQu3bdvWYrHoJyeIiRMnHj9+/NNPP9V1JKyBAwfKo+TOdu3aqRZ7IIs/mSClIP0BNl8BMdWmTZvJkyffvn1bVY8cOSLL2NmzZ8flcvv2wy5ShbqXvBOmChcXF29vb19f308++US15MqVS6atYcOGtW/fvkuXLmPGjJGcMWvWLHVlgoCAALXxOcF4enpK4km6V6RP0tatWydZUwojR450dbWXQ6CUChUq1KlTRwpff/21ugwuABtJF/Hx48f169f/7bffZGkvfYaff/7ZYS4knfiLqgcPHmzcuPHll18uX768bnI+z7nYl+SJDz74wNha8O2336pCQnKMBJ3kqGMzfXx87DPVqWnyxIkTS5cuVS0AbDFw4MDWrVsfOnRo0KBBUl21alWRIkXUIAeQ+KnCzc1NOmRBQUF58+bVTc7nhZfoaNGihSrcuHHjzJkzqgwHdurUKbUNr0ePHqrF3pQrV05tX3Tmi2I1bty4UKFCxYoVe/3118uUKSNdIyGFUqVKlSxZUlYV4p133vnoo49+//33BN59CbuVJk2agICAy5cvHzhwQBKGusKmw0j8VCH9YJnx4njt4W3btjn2ZljuspZU/PXXX48ePdKVOFi0aJGshNKlS9ekSRPdFGcXL15UScUs7du3l8e1a9deuXJFtZjr8OHDEqN1xS5NmTJl4cKFnTp12rdv386dO7dv3x4WFvbmm282a9asV69e0hmQtLFp06YffvihXr16Ej5kLaKfCdiBrVu3mh527WtnbazJPFywYMFx48bdunVLNzmWf//9VxW8vLxy5MihyrBDvXv39vb2HjJkiHREdFOsqFM/ateuLd0a1RJ3K1as+OKLL3TFDA0aNEiRIoWkqMDAQN1kKunfZ8+evW3btn///bdusjOenp7Fixfv2rWrpAfV4u/vP3ny5D59+rRu3XrAgAGzZ88+ceJE1apVZdChQ4fkB42nBAbEQq1ataRX/+2336r7nJnCQVKFOH78uCzQX3311Y8++ujgwYO61VEYXcxPPvnkWQfunT59+vPPP3/vvfcqVKjQsWNH6R49fPhQD4tCFm1jxoxp2bJl+fLl3333XVkUnjp1Sg+LFRvfXbrLkyZNMu7zK123du3aVapUKdGv72Qi+Rtl5Z0zZ07pqu7YsUO3xoR00P/66y8pmHtD5McRdMUMGTJk8PPzk8KGDRtUi+nu378fEBDwxhtvyIS6YMECU7YDxYfn3DxWFkryydUI586dk1lDtQP24PDhw926dZOptHv37kb3NS4cJ1UooaGhMtMWK1ZMVlS//PKLucvQxLJr1y7p9EhBVv/G2SLWbt68KSswHx8fi8Ui3abOnTtL90jSVcmSJXfv3q1HeuLWrVvS+StRooR8Oc2bN5f1lkxVkjBee+21Ll26DBw4UBJGjx495Ok2XpLZlnc/evRoo0aN8ubNK9OuvPjatWulcenSpWXKlJk5c+amTZuWL1+uxnQYsv6bP39+uXLlZI2o7kaoB9hAsoh8mRIf3377bd1kr1QvPAFuC7J9+3aZXCWrSXi9dOmSbrUbz7/KcqZMmWT6V2X5Q1QBsB937tyZPHlywYIFq1evHhgYGKcjCmTh5QCetVNA1mHDhw+/evWqHu/Z9u/fr55y5swZ3ZSAjL2thQsX1k0R5JP37ds3TZo0yZMnV1cc0gOs7Nu3L3v27ClSpPjzzz91k8UiqzR1oVLpIQUFBelWi+XatWt58uRxc3M7cuSIbrJYJBYUL15cfQCDrM/04Igrn6rG8ePH66YnbHx36b7Pnj179OjR6rjU9OnTS+BInTq1cZiSLHPVcxOGetO5c+fqunl8fX3Vi0ci65V+/frZOHWp0yskhOm6Sb777rvXX39dV0yirrUvTp06pZvM8/XXX6sXj0Qm4KZNm6pdwi+kfhH58nU9fjRo0EB9NnVATFRTp05VI0jQ1E0wm7qXr/ziup6wrl+/Hu0i2p7JolhNlpF4e3vL4lpWDXq8mHC0bRWRXLhwQXr5str74IMPdu7cqVvtXuPGjcuWLevp6fnKK6/8/vvvXbp0kRAwcuTIqGd4BgcH169f//z58998843aFq3IYnfIkCFSuHLlitrOoXTu3PnkyZNNmjSRTKqbIrZjjxo1SpXbtWsnOUDYcjFm29/dy8vr/fff79Onj9r9/ODBgxYtWkhX/vbt25cvX5blrKx0/3um47px44b8grlz55ZvbN26dTLv6QHROXbsmDwWK1ZMVe1Z0aJFVcHI5QlAlt0LFy6UlYePj8+MGTPu3bunB9gxY2OV9awHByBdpjZt2rz88suZM2eW/pX0x5LQuuZZTp8+7e/vL91yWSOoe3/azsFThfLw4cM5c+aUKVOmdOnSUpBVmh5gr1q1aiXTpSRfKUv6lsyYJ08eNSgSWZ1LSkiePLmss3XTE/L3qms8G/lAVmy//vqrFKJumahatarainDw4EGPCDJ7qEHPEaN3V9KlSyeP8hN07dr1vffec3FxyZIliyQndQMthxceHv7bb7/Jt12kSJHvvvvu7t27esDTjh8/Lo+FChVSVXsmP6i6c0Ecj8uJHVnetW/fXroNffv2leWgbrVL+/btU4VmzZqpgggLC5OI+dFHHy1atEhVJ0yYUL169aZNm0bawy2DfvnlF1nEV6lSRZZjtWrVGjx48LP2gg8dOlRmqB49enz88ccS5fv16/fZZ58NGjTo888/l4K0dO/ePeoRP/IW8jHkLSpUqCDz5sCBA/fu3auHPS0kJOTbb79t27Zt5cqVy5cv36BBA/kw27dvj7TZ3MbRkrSjR49KT+nHH39UF8qUP239+vXSTXKMa85KXp85c6Zkd5kkfv75Z1uPalKbLJK6GJ0W4enp+emnn547d04/OYK97QGRfq1qkX7/tm3bVGNUBQoUkHEkUer602QBpF5E1l5SNZYjY8aMUSNYU9cL8fPz03Urz9oDEqN3V4wbyElm0k2JQX2GhNwDEq306dN369ZNFkz6yU9kzJhRhk6cOFHXTRIfe0CEupVzfOxieNYekGi5urrWqVNn9erVsmTXz49gD3tAZKmizuVp3bq1apEZXD6YsQdQ5ixZgquDVJTNmzerMYVk/VKlSknX4quvvlq5cqXEi3r16sk4EuhlPS29Jj3eE5LzZBKSZCD9E1mpG9566y314vJdqWN3DPKashStWLGi9LvWrFkzbNiw1KlTy2jSYZV1iR4pgvQBpFNeu3ZtWc1s2LBh1qxZ6iqrwnpKtnE0cyXwHpDHjx9H7aEp8tMcOnRIj2fHnrUHJFpeXl4yvV26dEk/+RmcMVUoyZIla9iw4caNG9Ur2FuqkCWjcUVFWW1fu3ZNtVszNvzKEkR6J1OmTJGAPG/ePFkuSHaWVYixCf3EiRMyvkzlqirLF/UK1tRWhC+//FLXrUSbKmL67opKFbIw1fVEoj5YoqcKg3wty5Ytk86iehHVuHDhQlU1Szylipo1a8qnlQW6rpsnRqnCULBgQXWTBfUiiZ4qZCms9g+WKFEiNDRUNUo4kNnEOBp33LhxTZo0cXFxMXKGsU5asGCBrKLKlClz48YN1aIYF+8vX758pN35sqrYsmWLrjwh4UM+gHrKqFGjdGsEdaU1Wetbv86mTZvUyPIr6KaI5aTEoxo1auj6E5KAZcwrV66oqo2jmS6BU8XzT6g2EqQ9i1GqUGRqbN68uawU9EtEEX2qkDWrfgEnULRo0alTpxr9eDtJFUJ689mzZ1ft0okxVjkGY5OvTBlVrMjI7777bqNGjdq1ayfre+kl3L9/X8aXxYo6fEFm+IsXL6oXUf744w9pl3CmDq6MJNpUEdN3V1SqkKfoeiJRn1wWx6pgJ3Lnzj169Ojz58+r6tq1a/XHjQn5tuUVzkVHVg8S9XQlitgdmSVq1aoln1a6uepj2wlJyV26dDl8+HCipIrp06fLPCUhu0+fPhkyZJA5bvjw4dYzgmKcMS4/vazU1eF+Enal5fLlyzKCPHp4eEh1165d6inWOnToEPHsp1b8Mpu7urqGhITo+hPGTTIjHRk9adIkaZQPEPUpam5NlSqVsVRU+SPqVjT52DJTG0nOxtFMp1JFkjggyQFIF2XmzJnSvdTf/hOkiv/IunDatGmqbD+pQkiHwzhC8/PPP9etTxg/U/HixXXTiwQEBKinSK/l4MGDqnHdunVeXl6FChU6fvy4aokk2lQRi3cXpIrne/PNNyWHqbL1NnDbNW3aVD09pmTlYb2vynYqVdjhl5ktW7Zhw4aVK1dOygmcKsaOHSvZ+u23327RooWsXC9cuKBGi2Tr1q3qWfJRjc0YYuPGjWqzgfo1ZapQ7ZGcOHFCXZU4RYoUxjk4d+7c+eyzz1TZ8Msvv0S8z39LGBlBt1oskiTc3d2lvX///rrJirG4+Omnn1SLimgSGlTVmiQbY1+JjaOZjlSRkGTaq1GjRtStYi7yvx7FiixcJGXrSlIgs4R0snXFZilTpmzTpo1M+rJClfW62kMmK0t1mGFCkhW8mhNknjf2UygyE8oyQgryE0rv55133lHtIiwsTP4EeXz55Zdtv6hoYGDg0KFD9+zZIz99lixZZOH1yiuvyDL3/ffff9ZdxHbs2KEWzZIqevXqpRpj9+7y+VevXi2pIjg4WDclBrUsli9WHWloolGjRsmyXlds5ubm1rhxY+lNyvpDqurjLVmyRO0+jxH5ReTniHa+lnWDRBYJkbr+NOlPC12Jidq1a69YsaJ58+aVKlXSTSaRrry6xmhMlSpVqm/fvvLtJU+e3M/PT1beMoWPGDFCD44HDRs2VIdCS6owLk3xQsac1bVr18mTJ6tGw9WrV2UOlcKHH374rKP/6tatq+7uNmbMmN69e6vGSGTxUrZsWQkQMt/t3r3b+vL/CxYskB9OCtOnT28X5W77ssKoUKGCFPz9/dVpYlWrVpXpx9XVdciQIV26dHnWbRFtHM10nTt3njp1qsxE6lry8U1yv9qwFK2CBQtGe3khu9KzZ0/j7CTbyYKiQ4cO3bp1y5cvn26y9l+0SPpielyFfBeyglQLX8XejqswhIeHq/69yJgx49mzZ/WACN7e3mpQjPq18nYyxU+bNm3btm2ydtetz/asozVj8e52ta3CHo6rkE6qhDy1uduQKlUqGSQ/kK6bJJ6Oq1BhQuKmrptHInXEl2Qr+d7atm27d+9e/fwIibIHxEbGnDV27FjdZMXYwDBgwADdFIVMPGqcli1b6qan3bx50ziDTHoUuvUJyV5qkHx++QwzZsyYPXu2dCnlUSY/6a2podLlUOPPnDlTtQjJvj4+PhIa5syZE+maQDaOZroEPq5CZlt1OFq05s+fr8ezY7Io1h/XNtIDnzJlivXmrqic4sxSa7JWW758+dGjR2UhKJ1s3ZrYjFOtjIJB5kmZG7NmzSplWUBIj9b69B7j1lO2X/FaXq106dI9evSQOC/9pJhOVdZi8e4wyJcvPcXTp08PHDhQdUkNaguKLIJV1c7JslUeM2fOrKqJQvoVEkHOnz8v68WSJUvq1qRDuvW6ZOXChQuqEO1QJXfu3KogCwdVsCbLk2bNmp08eVLKgwYNMs7CMFx5clMSGUcWjJKzAwIC5DuUglSliyW97YkTJxpbKNu0aTNkyJDkEWehy/pDApysYyRzyAQsiybj1WwcLamTP2f06NG68jT5qmO9L9IOyWpI/qI1a9YcOnSoc+fOL7jJakS2SPJeuK1CEmW0p/AZEndbhbF7Vf4Q3fS0DRs2qK3ionv37rrVYpHljpp1hfRadKsVmYF/j7gFs6IurySk26qbbLD5yfWYZRbSTRFi+u6icuXKMnKaNGl0PZGoz5wo2ypSpkzZunVrtQfqWapVqyZjtmrVStdNEh/bKh4/fqwubWL6GSvClm0VlSpVWrx4sToKIVpJYltFpK2AijqOUjxnSjDmzRYtWugmK/7+/mpozZo1JWHoVisyKaoRlixZoptscPHiRelIyLwc6Trlb775ZpjVQeU2jmaiBN5Wofz000/WF/GTRaKEsKjHMNqnF/YqPTw8evfuLaFTP8EGjr+tIn/+/OpoKZlF1fUV7I0sEI2dx+fOnYv2umyy6Bw8eLAqyx8yZswYtcUiW7ZsM2fOVIFD+iIy2s8//3zixAnpPm7atKl///758uWz7sRs2bJFFSRvent7ly1bVuZAw1tvvdW+fXvjjDKDcTsPWRdab02J6bvfuXNHgp0UQkNDY3q9Ngegrh8v/WnpDsraXbdGR11+8WBSuEne8ePHH0bcRs7oNCeM1KlTy7QqnQEJ3LJGf9YhQUmacRk048joqIxDmqJeM01ynupJ582bd968eUa3xJqxE/M5bxGVl5fXJ598sn79+uDg4I0bN/bp00cdkbMrghpH2DhaUvfhhx9KflIH08jqRmZwyYhqJ2aSVqRIkalTp8qqU1Y3MZu7dbpI4qJuq5BZqFatWitXrow2oUeVKNsqVq9e7enpGXWBKEtMmTr1SE/IH2J9qKZ0EE+fPq0GrVu37rXXXtMDrPj4+Pz6669qHEVmb+sXeZYpU6ao8SVnqEPEDfK+WbNmtT43zJZ3X7p0aebMmSNtyJVFjOSS+DvN7DnUB0iwbRUVK1aULqzth76rQ/Pk+zH3aPn42Fah9qDLFBv1WkxxF+22ipjeoUD9IklxW4Wsq9RQ6VA+a0+2sT0j0tEkktrlR5F2mYpk4aZbn5BVhSx8pGAcBFq5cmU16PlmzZoVbbd1zZo16nUWL14sVRtHM12ibKtQZAJLrLeOi6jbKmQpXb9+fcmCeoyYc8BUIV9Tz549jx07pofZJlFSxf3792XhGBISIisPlX7CwsIePHggS5BoLz0pg+7evStjyvhBQUHWW32lUZZQX331VZcuXXr16jVhwoRn7e6RXkKxYsVKlizZv3//UaNGjRs3bsSIETJLNGvWzDjQRJZEaqkt7yIfRt5XfTx5X/kAN27cUFXDC9/d+i+VqvyZ0iJ5Qv7MSC+VMNSfGd+pQh08KMt3Pcxmhw8fVq+w1bYbaNkoPlJFy5Yt5XNWqVJF100VKVXIuyxZsiSmG88TJlUYZ+vEaE/Q81OFKFWqlBoh6rUflMaNG8vQqlWr6nqEq1evGic3RXvMoLxau3btpCDzsgof4u+//1ZDn0P6JNGub4xr4h04cECqNo5mOlJFTFmniowZM/r7+xud1VhzqFRhy+Gpz5K4x1UkjMuXL6tlkKzqou1ZhoaGquMeRFyyqv1Tf2P8pQpZpo8cOTIuVyVXpzf37t1b181geqqQXOvp6Smfc/DgwbrJVCpVuLu7y9oi1tc/TphUIet1eRcxc+ZM3WSDZx2xZNi5c6facyFTVKRrawpZAUjPUjoD1rcglrxuXDvk448/1q1Pa9KkybBhw1RZegJq5Dx58kS7gSEwMFAWHapcoUKFsdGdrvLnn3/KK1SqVElVbRzNdKSKmFKpokSJEtOnT7e+YkpcOEiqkBlj7dq1cen1OkOqaNGihfyBZcuW1fXoyNeovodIR1k6GPU3xkeq+PTTT6U//ZyDB23UuXNn+YQFChTQdTNMmzatdOnSumIGY2qJtPndLPPmzZNOvPUZ4LGQAKlCVsbGJRnq169v+5F648aNU89q2LDhs3YhqcvViMKFC1tfEvfKlSuSETNlyrRp0ybdFLHV0Dj1QFYVEjvUhVOFfEgJH7JenzhxYpo0aebMmaOeIl+vsUUkXbp0MgFLlJEXlxgn3798e/nz55ekokaWsoyzLuKmu4Zjx47ly5dPBhkx2sbRTEeqiKl27drF6KoEtnCQVBF3zpAq1Bad4cOH63p0jAMzn3O+jANQf2N8pAqzGMfMPufecjElqwpzN0F9+OGH8gmLFSum63YpXlNF9erVo16xwMXFJWPGjD/88IMeKTpRj1hydXWVZ0W71ScwMFCduCvZRVacY8eObd26dbZs2Zo3bx5peWVcmPWFVq5cqZ9jsdy+fbtnz55RD/CSTygdNpls1GhhYWESR9QgHx+fVq1aydBq1aqlTZtWnm5sz7BxtPhAqrAH0V9b0wkl7rU1E0auXLnOnj07cOBA48o5UUk/RuZ86bs40kHaUamtypIq1PYbOyQz5muvvfbvv/82a9Zs/vz5utWeyMrG29tberGjR4/u06ePbrU/8XptTenoy8o4ZcqU8ijkV5N16qNHjx48eCCNxiELUQUFBbm5uck48ih5Qp4iHj58KNVoLwYgK/7ly5fv3btX3jFTpkyFChWSQKMuY2NN3jc0NFReNkWKFPJ5ZDoPDw+Xj6QeFVX28PAwTgtXbty4sWzZssOHD8tnk1eWQFCjRo1I5zLIi8uXuWfPHvn15b3y5MmTN29e+YbVjjCDjaOZTl1bU1btxsluCaZ///7qPrQJ/9Z2579oAefYVqF6ls9J07LkkjWZLOO2P/t+dI5B/db2vK1CqMP7ZdEf9+On4oPEU/l4suKM9oa69kMmePmc8boHBHaCbRX2wOmurenMBgwYIL0c6UNMjLgfcSTSQWnatKl0jmfNmlW2bFndisTTtm1b+b2kCys/nG6yG5Ikxo8fL4V27dol7lU1AdgVUoUTKVCgwMqVK+WxZ8+ederUWbVq1ZkzZy5durR+/fohQ4bkzp3bzc1t//796lxBJLo0adJ8+umnUpg/f75xvIud+Oyzz0JCQtKmTWuHiQdAIiJVOJdSpUodOXJkyZIlHh4eQ4cOLV++fOnSpfv16yddzxUrVgQGBhYpUkSPCjvQpUuXfPnyhYeHd+zY8fHjx7o1sW3ZskVd/Kpv375Rd+0DcGakCqfj4uJSr1692bNny7rhwoUL586d27Vr16RJk4xz3GE/UqdOrY6u2Lt375dffqkaE1doaGibNm0k6BQoUMC44yUAKKQKwK7VqFFDHWb79ddfr169WjUmFovF0qFDh+PHj7u6uk6fPj3SXaMAgFQB2LspU6YULlw4PDy8ZcuWskbXrYlhyJAh8+bNU4UKFSqoRgAwkCoAe+fu7r5kyZL06dNfv369cuXK58+f1wMS1owZM9RemLp16xoXfAQAa6QKIAkoUKCABIvkyZNLpHjrrbeOHTumBySUadOmtW/fXgoVKlSYP3++uowYAERCqgCShipVqixevFiCxcmTJ/38/Pbs2aMHxDOLxTJs2LCOHTtK+fXXX1+6dKlxPWYAiIRUASQZderU+e2339zd3a9evVqhQoWAgAA9IN7cunWrfv36gwYNknLZsmVXrlxp3C4fAKIiVQBJSa1atTZt2pQlS5Z79+61bdu2SZMmkjD0MLOtXbu2RIkSv//+u5QbNWq0YcOG+L6PA4CkjlQBJDFvvPHGwYMHK1euLOVFixYVKlRo6tSp5l4j6+zZs82bN69WrZoUUqRIMXr0aHmjSDeaAoCoSBVA0pM5c+Z169aNHTtW1vQ3b97s3Llz4cKFp0+ffv/+fT1GbJ0+fbpHjx4FCxZcsGCBVOVld+3aZc+3JAVgV0gVQJLk4uLyySefHDp0qFGjRlI9duxYhw4d8uTJI5nAuAGv7e7du/fLL7/UrFkzf/78kyZNknSSIUOGCRMmyEsVL15cjwQAL0KqAJIwiRGLFi3atWtX7dq1XV1dL126JJmgRIkS0t6uXbvp06f//fffd+/e1WNbCQ8Pv3jx4sqVK4cPH16rVq1MmTI1btxYqo8fP5byoEGDTp061bNnz2TJkuknAIANSBVAkleqVKlly5YdPny4V69eOXPmlBbJBDNnzuzQocMbb7yRLl26bNmy5c+fX8pCZY706dO/+uqrNWvWHDhw4B9//HHv3j0JJRUrVvz+++/Pnz8/ZMgQzvUAEAukCsBBFChQYPz48adPn96+fbtkhfLly7u7u6tBly5dOn78+N8R9u/fL5kjJCREDcqRI0ejRo2mTZsmYWLTpk0dO3bkqEwAsUaqAByKi4tL2bJlhw4dunXr1jt37pw4cSIwMFBCwwgrEj7mzJnz559/BgUFnT17dtGiRe3bt/fy8tIvAQCxRaoAHJYkjDx58tSpU0dCQz8rvXr1atmypZ+fn4eHhx4VAMxAqgAAAOYgVQAAAHOQKgAAgDlIFQAAwBykCgAAYA5SBQAAMAepAgAAmINUAQAAzEGqAAAA5iBVAAAAc7hYLBZddG4HDhwoXry4FHx9fbm7ksNbt26dPM6dO7dFixaqBY7Kz89v69atuXLlypcvn26Cgzpy5MiFCxdkGb5lyxbdlFD69+8/cuTIRHlruyOpAmL//v36G4HTkFShf344LlnQ698bzkF+cf3bJ6B+/fol1lvbG7ZVaJJwBw8eHBQUpOtOQyaAsLAwNzc3XXca6dKl69SpU+nSpXUdDmr06NH79u178OCBrsOhpUiRomTJkv7+/rqeUNhWYSBVOLtVq1YdOHCgT58+ug4AiCFShYGjNZ3duHHjJk6c+PjxY10HACC2SBVO7fjx46tXrz537tzy5ct1EwAAsUWqcGrjx49XhREjRqgCAACxRqpwXnfv3p07d64q79ix43//+58qAwAQO6QK5zV79uzg4GBdsdpuAQBA7JAqnJTFYpk0aZKuRJg3b96tW7d0BQCAmCNVOKmNGzcePnxYVyKEhoZOnz5dVwAAiDlShZP65ptvdMnKlClTwsPDdQUAgBgiVTijs2fPLlu2TFesnDp1aunSpboCAEAMkSqc0ZQpU8LCwnTlaZMnT9YlAABiiFThdO7du/ec4yfWrl3LKaYAgNghVTidhQsX3rhxQ1eiw+YKAEDskCqcTrTHaVqbNWsWp5gCAGKBVOFcduzY8c8//+jKM4SEhPz444+6AgCAzUgVzuWFGyqUyZMnc4opACCmSBVO5NKlS4sXL9aV5zpx4sQff/yhKwAA2IZU4USmTZv26NEjXXmRiRMn6hIAALYhVTiLhw8ffvfdd7pig9WrVx89elRXAACwAanCWfz222+XL1/WFdtwiikAIEZIFc5iwoQJumSzgICAO3fu6AoAAC9CqnAKBw4c2L59u67YLCQkZM6cOboCAMCLuFgsFl2E4zp79uy///6rK1YkN9SrV08K48ePL1q0qGq09sorrxQvXlxXAADR6d+//8iRI319fbds2aKbnBWpwqkFBwd7eHhI4c8///Tz81ONAIAYIVUY2AMCAADMQaoAAADmIFUAAABzkCoAAIA5SBUAAMAcpAoAAGAOUgUAADAHqQIAAJiDVAEAAMxBqgAAAOYgVQAAAHOQKgAAgDlIFQAAwBykCgAAYA5SBQAAMAepAgAAmINUAQAAzEGqAAAA5iBVAAAAc5AqAACAOUgVAADAHKQKAABgDlIFAAAwB6kCAACYg1QBAADMQaoAAADmIFUAAABzkCoAAIA5SBUAAMAcpAoAAGAOUgUAADAHqQIAAJiDVAEAAMxBqgAAAOYgVQAAAHOQKgAAgDlIFQAAwBykCgAAYA5SBQAAMAepAgAAmINUAQAAzEGqAAAA5iBVAAAAc5AqAACAOUgVAADAHKQKAABgDlIFAAAwB6kCAACYg1QBAADMQaoAAADmIFUAAABzkCoAAIA5SBUAAMAcLhaLRRfhfIKDgz08PKTg5eWVKlUq1QgAiJGbN2/K4tTX13fLli26yVmRKpyakSoAAHFEqhCkCqf24MGDCRMmBAUFMRkAQFwkT568UKFCLVu21HVnRaoAAADm4GhNAABgDlIFAAAww0sv/R8wsw6IVbQ0YAAAAABJRU5ErkJggg==;" parent="1" vertex="1">
          <mxGeometry x="322" y="421.87792607802874" width="145.9958932238193" height="52.77207392197125" as="geometry" />
        </mxCell>
        <mxCell id="OsGpNBEIPA-UDgHcJY4G-9" value="" style="shape=image;verticalLabelPosition=bottom;labelBackgroundColor=default;verticalAlign=top;aspect=fixed;imageAspect=0;image=data:image/png,iVBORw0KGgoAAAANSUhEUgAAApsAAADbCAIAAACtN812AAAAAXNSR0IArs4c6QAAAARnQU1BAACxjwv8YQUAAAAJcEhZcwAADsMAAA7DAcdvqGQAAAASdEVYdFNvZnR3YXJlAEdyZWVuc2hvdF5VCAUAAAAhdEVYdENyZWF0aW9uIFRpbWUAMjAyMzowNjowNyAxNDozNTo0OCzCuYoAADEoSURBVHhe7d0HfE3n/wdw2UNii5UIEXtrEXuLGVsErRHUHqVVuyhFa7Won9qrqFJ7q1X1s2pWa8UKfpQQI/b9f3K/j/O/slwRcu+5n/fr97s9z3POHW7ueT7Pc6adwWBIQURERFbOXv2XiIiIrBkTnYiISA+Y6ERERHrARCciItIDJjoREZEe8Fh3Ij17ei8yheGFvaubg7OLqiIineIYnUjPdgfX2FK58JVVS1WZiPSLiU5ERKQHTHQiIiI9YKITERHpAROdiIhID5joREREesBEJyIi0gMmOhERkR4w0YmIiPSAiU5ERKQHTHQiIiI9YKITERHpAROdiIhID5joREREesBEJyIi0gMmOhERkR4w0YmIiPSAiU5ERKQHTHQiIiI9YKITERHpgZ3BYFCTRKQ72+uUfnT9asEBo3ybfayq4nFizKAHF8McU3rgfw5ubs/uRabM4Z+7Yy/MOjvr+6sbV/m16exdr6ksTEQWiGN0IkoRcezwpWXzH4SduXf6r9uH9kUcOXhj9/ZsdRph1skxg09PHXf/3D8nvx707OEDWZ6ILBATnYhS/O+3jYUGjam68UDl1XuqrN2bqWL1QoNGu2fLjlk+jVuWnLrQ0cPzedTD++fPyPJEZIGY6ESU4vmjKJ9GITIdvn5l5Jm/swY2kGKqPAUylqmUrnhpTNu7uEolEVkgJjoRpSjYf6SdfXRrcD/s7PGvPs/bo7/Ua+wc7FPY2aXMnkOVicjyMNGJSDEYDMe/6p+pYg1Pvzyq6qUHF8NS5yvswDE6kQVjohORcm3zmog/92epUU+VXzK8ePHwysUsNeurMhFZJCY6ESmXVyy2c3DIWLaKKr8UceQAhu9ZAoNUmYgsEhOdiKI9uXvn1sG9zukyOLi5qaqXwhbPytky1C1zVlUmIovERCeiaFHhl1IYDC4ZvFT5pajrV++e+NPfeKkZIrJkTHQiivbkTgQen92LlKLm1MSRBT4f6ZjSQ5WJyFIx0YkomluW6I3qD8MvPbgUJjVwbu60NAWKZq5aS5WJyIIx0YkoWkrfXJ6586UwGA5/1unf/Xsijh06OqT341v/+rXprJYgIsvGRCeiaHb29kVHTnbNlOXemb/3dw453K9T5up1CvQdqmYTkcXjvdeI9Mz8e6+J548fRf59wtEzlUfO3HZ2dqqWiKwBx+hE9P8cXFzTFv3Q0y8P45zI6jDRiYiI9ICJTkREpAdMdCIiIj1gohMREekBE52IiEgPmOhERER6wEQnIiLSAyY6ERGRHjDRiYiI9ICJTkREpAdMdCIiIj1gohMREekBE52IiEgPmOhERER6wEQnIiLSAyY6ERGRHjDRiYiI9ICJTkREpAdMdCIiIj1gohMREekBE52IiEgPmOhERER6wEQnIiLSAyY6ERGRHjDRiYiI9ICJTqRbT+9FPn/8CBNR169KDRHpmJ3BYFCTRKQXL54+PT3tm7BFPxqePZMaj5y5Cw0Zm65YSSkSkf4w0Yn0xvD8+cFPQ2/u3qbKL9k5OpWatij9h2VUmYj0hVvdifTmytrlseMcDM+eHhnUQ7bDE5H+cIxuc9CgRxw5oAqkRyfHDH5w8bwqxPLh5LleFaqpAhHpCBPd5kRdC/+tboAqkO3x79grT5d+qkBEOsKt7kS2xd7ZWU0Rkb5wjG5ztDF6wOwVnn65pZL05FDfjrcP7VOFWErPWMaD44h0iYluc7REL790S6rc+aSS9OTm3p0HurdWhVelyluw3KL1dvbcOEekQ1yxifQmY9lKOULaq4IJ57Tpi4yYxDgn0iuu20Q6VOCz4cVGT/HwyyNFO0fHbPWallu4lltliHSMiU6kT1lrNai4fJtLxkyYztdncNERE92yeMssItIlJjqRntk5OODR3tFJikSkY0x0IiIiPWCiExER6QETnYiISA+Y6ERERHrARCciItIDJjoREZEeMNGJiIj0gIlORESkB0x0IiIiPWCiExER6QETnYiISA+Y6ERERHrARCciItIDJjoREZEeMNGJiIj0gIlORESkB0x0IiIiPWCiExER6QETnYiISA+Y6ERERHrARCciItIDJjoREZEeMNGJiIj0wM5gMKhJ0pcra5cfG9pHFd5ErtAeebt9rgpk5bbXKf3o+tWCA0b5NvtYVRGRTnGMrltZA4NcMnipgtnsHBx8m7dRBSIish5MdN2yd3JORDZnqlrbNWMmVSAiIuvBRNczn8Yt7RydVME8OYLbqikiIrIqTHQ9c0mXIWtgkCqYIVXegulKlFYFIiKyKkx0ncv+JsdDvdHCRERkUZjoOpe2SInUBYuqQoKcUqXOVqexKhARkbVhouufr3m7xr0bBDu4uqoCERFZGya6/mUNDHJKk1YV4mNnx5PWiIisGhNd/+ydnLM3aa0K8fCqWMM9W3ZVICIiK8REtwnZG7eyc3BQhbjwgmJERNaOiW4T3LJky1SllirEkjKHf4YyFVWBiIisExPdViSwm9y3+cd2dnaqQERE1omJbivSf1jG0z+vKphwcHP3DmquCkREZLV47zUbcmnF4hNf9VeFl3yD2xbsP1IVyDrd/fvE4c8+UYVXPboebnj+3ClNWseUnqrKRLoSpYsOn6AKRGTlmOg25FnUw+2BJZ/dj1Rlo4q/bPfImVsVyGrtCakV+c9JVTBbifEzM1cJVAUisnLc6m5DHN3cfRoGq4JRhoCKjHN9yNGqg5oym2vmrF4VqqkCEVk/Jrptib5yu8lBcL7NedKaTmQNDHJOm14VzOPbvI29o6MqEJH1Y6LblpQ+OdKXKifTrl6ZvSrWkGmydvZOzj6NW6qCGexdXHwatFAFItIFJrrN8fuos0zkaNnBzp4/AP3wbfZxwtcRMpU1sIFz2nSqQES6wAbd5mQoU9Hd2xdDNO8Gr+xTJ2vn6pU5U9XaqvA6vi3aqSki0gsmus2xs7PzDW4TPURLnUZVkV7kMO8+e2mLfpg6XyFVICK9sOmz1+7cuXPw4EFVsCWGqIeGO7fts3irsi0pVqxYhgwZVEGPzDmNrfiYaVlq1lcFPdq3b9/9+/dVgWwAVmqs2qpgw2w60ffs2VOhQgVVINuwdu3aunXrqoIeXV750/GRn6tCXFwyeFVZt8/eyUmV9ahw4cInTpxQBbIBderUWbdunSrYMG51J9KVrLUbJXw7/OiT1nQd50Q2i2P06DH6sWPHvL1tcRO0TUmXLvrQbt2P0eHUxJFhC2aowqvsHJ2qrt+HYboq65SM0Xv16jVs2DBVRTrVt2/fOXPmcIwumOjRiX7x4sXs2bNLJemV3F/OFhI96lr4b/XLpnjxQpVNZK3TuNhXk1VBvyTR+/fvP2bMGFVFOtWlS5fp06cz0QW3uhPpjVuWbF4VqqvCqxK4qS4RWTsmOpEO5Qhpr6ZMpC5YNG2REqpARLrDRCfSofQly8a+B4+veWerE5GVYqIT6VD0dYRCXrkqnHPa9FkDg1SBiPSIiU6kT9nqNHb0SKUKKVL4NG5p7+SsCkSkR0x0In1ydE/pHdRMFeztfZvxzrlEOsdEJ9Kt6B3nxnP2Mler4+qVWSqJSK+Y6ES6ldInR8YylTBh5h1ciOi1Xrx4MWnSpJIlS169elVVvXT27NkePXqUKFEiKipKVb1fTHQiPcMw3TN3vnQlSqsyEb0FZHb58uX79Olz8ODBI0eOqNqXpk+fPmXKFFdXVzc3N1X1fjHRifQpIiLi/PnzN9J4OdQNPnfuXHh4+JMnT9Q8Inpz//nPfz777LN+/fo5O0cfZCqXoTS1detWPDZp0kSK7x8TnUgPDAbD0aNH0eJ8/PHHxYoVS58+fbp06XLlylW4SJFybTr6+/t7e3u7u7v7+fnVrFlz0KBB69atu3PnjnoyEZkBo/OVK1c2btwY6xGKHh4eUi9u3ryJdRATWEBq3j8mOpF1O378OAYNPj4+CPLOnTsvWLAAzcrt27fVbBPPnz8PCwvbsmXL6NGj69Wrh9RHus+dO5e3EicyR8GCBWXi6dOneEyZMqUUxebNm/FYtGjRnDlzSs37x0QnskrPnj1btGhRQEBAkSJFxo8fHx4ejspUqVIFBgb2799/+vTpa9euPXTo0DmjU6dO7dq1a+nSpWPHjm3Tpk2hQoWw8IsXL5Du7dq1y5w5c6dOnU6fPm18YSJ6Dekxy+0cNXPmzMFj06ZNpZg8DDZs9+7d8iVcvHhRVZF+yd8aOafKVgtJvHjx4ty5//8irxig9+zZc/v27Rg6qIVe59KlSz/88EPt2rUdHR3lRRwcHNq2bauPdUG6LOjZqDLpV+fOnfG3rlOnjiq/e1gBZQ96ZGSkqjIYwsLCoteiFClOnjypqpIDx+hE1gQD7sqVK7ds2fLMmTMoVq9efdWqVRcuXJg8eXKVKlW0eH4tdALQFK5fvx7RPmjQIC8vr+fPn8+dO7dAgQKTJk1Cm6WWI6JX3b17F9np5OTk6empqlKkGDFiBB7z5MmDNUhqkkVyJjq+lPnz5xcvXvynn36Smp07d5YsWRJtkxSJyNT3339fpEiRXbt2YbpatWp79uzZsmVLUFCQvX3iV+QsWbJ89dVX6CiMHTs2TZo0Dx486NOnT5kyZc6ePauWICITssk9ffr0UoSjR48uXboUE8l4lLtItkTHqAJDjTZt2hw5ckRGG2inatasefDgQXd3d1mGiMTDhw9btGjRs2dPTKRNm3bx4sVbt24tV66cmv3WPDw8Pv/8c6yJeBcU9+/fX6pUKYz+ZS4RaWIk+uPHjydMmPDBBx9g2kYT/eeff/7iiy/GjRvn7++PYsGCBW/evNm8eXPZ1me6g5CIrl27VqFCBRkE1KtXD7kbEhIis5JWhgwZfvrpJwQ5Og0RERENGzZEU6XmEZGRJDrWETwaDIZOnTp98sknBw4cyJ49u+R6MkqeRC9evPiSJUtKly4tR/9jqNGxY8fWrVvjm8LIo2jRorIYEYWHh1euXPnw4cN2dnbDhw9fvXq16ea+dyEoKAhvly9fPkz37dt31KhRUk9EcO/ePTxeuHABA9HQ0NBatWpFRkY+evSoUaNGskAySp5El6E54EvJkSPHli1bfH19v/32W09Pz2rVqknfh4gwOq9aterp06ft7e3nzp07dOjQ2JepehewVu7fv1+26g8ePPibb76ReiKSC8tcuXIlU6ZMBQoUCAkJWb9+PWqS+bw1o2Tbjw6XL1++e/du7ty5Z82ahThXtURkFBUVVbduXcS5k5PTkiVLPv74vd4OFd3rzZs3V6oUfaOXzz//XDt8lcjGBQQEOBshufr164eaDRs2+Pn5lS1bVhZIRsmZ6HKZ+//+97/Dhg1DmyWVRCQ6der0559/YmLOnDnNmr280/l75O7uvmrVKtk1GBoaeujQIaknsmWpU6dGeGGM3q5dOxT/+uuvs2fPdu3a9W1OOUkqyZ/o5cqVq1KlitQQkZg3b97ChQsxMXjw4FatWknl+4fG69dff82WLVtUVFTjxo0jIyPVDCIblj9//owZM8r08uXLXV1d27dvL8XklZyJvnfvXjxKN4eINJcuXerevTsmAgMD5coVycjb23vFihWOjo74VL169VK1RPTyqiofffSRhRz+lWyJji/ijz/+sLe3r1mzpqqyElevXl27du3cuXOXLVuGf8LNmzfVDKIk8sknn9y/fx/j45kzZ76fQ+ESVqpUqWHDhmECP/vt27dLJRGtX7/+wYMHY8aMUeXklmyJfvLkybt37xYrVgzNlqqyeLt370bTli1btvr163ft2jU4OLhs2bJeXl74V3z99ddIerUc0VvYvHnzxo0bMTFhwgSMj6Uy2Q0YMEBOK+3ZsyevEUu2afXq1StXrlQF472O0NOdNWtWjFu2JKNkS3Tp6QcEBEjRwkVGRjZv3rxixYqenp579uy5d+/ew4cPIyIi8NetWrXq0aNHBw4cOG/ePLU0UWIZDIb+/ftj4oMPPmjbtq1UWgIHBwe52gz64nKtGyKbcuTIkQYNGuzbt0+VU6To06dPuXLl6tSpo8oWINkSXUYhVpHoz58/x6D8559/7tGjx7Zt2/AnlPMR06RJ07Bhw61bt2LUgmKePHmMi78CA/cxY8Y8efJElYkShEGAHDH69ddfW8Khs6bQeQ0MDMQEPhuH6WRrfH193d3dv/vuO3Rtf/rppyZNmri4uEyaNEnNtgzJ02Q8fvx4x44dqVOntoQT+F7rhx9+2LVrl5+fX5zX2bCzs0NPDRM+Pj5So2nfvj1+BIMGDbK0ppks1sSJE/GIAXqNGjWkxqIMHToUj8ePH9+0aZPUENmItGnT/vLLL7lz5/7222+XLl3au3fvcePGWcJhLqaSJ2kcHR0PHDgQERGRK1cuVWXB0CnDY/Xq1dEjk5oYENv4F8nA3dSqVauePXuWKVMm8+9xSbbs3LlzO3fuxETfvn2lxtKgC16sWDFMzJgxQ2psULNmzfLnz1+4cOESJUqULl0a3wlg4sMPP8SXU9AoMDDwk08+QQtgeHljftKBWrVqHTt27OrVq7/++muFChVUrSVJnkR3cHDAj/4tezd79ux5D2tLeHi43Bouzo3qAv+QhQsXZs+eXZVfkozPkCGDFEmv9u7d+/z5c1V4C3JdttSpUyfhHZzQ+sgerqTSpUsXPK5btw49cqlJWsePH79z544qWKRp06ZhiNa5c+ejR4/u37//jz/+wF+/ZMmSLVq0wLitZcuWSHr0zNDpadiwIYIf/yL1TCKjJ0+e4JejCknKircG161bFyk7YcKEd7r+X7t2TSbOnz8vE3EKDg6OPUZ3dXXFI28Oq3sYjaE/N2LEiOvXr6uqRFm2bBkeGzVq5OzsLDVvb/369XLiWVJBbwNd2KdPn27YsEFVJalFixZlyZKlffv2hw8fVlUWJmPGjEWKFOnWrRuSW2o+++yzKVOm9OvXr23btoMGDVqwYMG5c+eqV6+OWSdPnkRL9b///U+WJIKoqKjSpUuXKlVq3rx5jx8/VrVJwbr37549e7Zv377ZsmVDk3rixAlVm6QyZcokE2htr1y5ItNvJL5t9eLChQtDhw5t0KBBhQoVOnXqhH59nIfRnTlzZtSoUXLVkdguX748ceLEBK4shjHEzz//HBoainfBew0ePFguLxoDFtu2bRu+TCwsxUmTJtWsWRP9ldOnT8sykLgPE/vFp0+fXrt27TJlymBYM2bMGLmjUXwMBsOmTZt69uyJp5QvX75Nmzbz58+3nOOzMBRGcCLX8W8xPRrWfLdu3ZLfcP369aUmSTwzUoWkkD59+ooVK2Ji7dq1UpPkHj16NGfOnA8++KBs2bJLlixB70HNsDBa4xAbGiV8clkAa4Qt76Sg+Bw4cABdQG9v7wEDBly6dEnVviU0lFYqVapU6t/wUqVKlZAWWP/VEq+ze/dueeLFixdVVVy0M+b9/PzQpTLn9e/fv//dd9/JvWIx4MCfrWnTprVq1UJTqD0dLXhISEiaNGmQr8gqDE2qVq2K5fPnz4+/tCyzc+fOevXqZc2a1fj+0Rf6kHpx9OhRjOdy5Mghc7GYmvGq5cuX+/j44K0XLly4ZcuWr776ys3Nzd7eHgML7cOMHTtWO4YfEMnoRcogQ+zatSvRHwYvjqZZvg3Ai0dGRpq+uMAX9ccff6jnvGrVqlW5c+fGu+OfgIZSu85gsWLFvvzyyy+++KJPnz5du3adO3euekJc5CnIIVVOOoUKFZIX12D0Nnv2bHyHagkz/Prrr3gi/i63b99WVUnhhx9+wIdRhSQyevRofFSElionKTl5z1TmzJmHDBmCPpNawgzyF8FLqfK70bhxY/mEaHZU1aswjpcF0A1VVZTUOnfujG+4Tp06qmwNYm9XxoqP9nPr1q0YpaiFEkVXiS7Q0GAEeePGDbVc/MxM9ClTpshiAnEYEBCAdXXatGm//fYbwkkt99J///tf5LQ2NMefCh9VFC5cWJZB/qFr5uzsjM8gNYB8lSvooWsfERGBmlOnTi1YsACJJS8VI0TxsTFXO80pzkSXM+sw7MNATVUZOwrG14s+DUlqNm7ciDisVq2a1E+YMKF58+Z2dnZaxp88eTLRHybGi/ft2xdJjLHshg0b8JorVqzQ7ohfsGBB088p5DTojz76SJWNkJfyFFPodqjZcZFl3k+iCwxnESoJ/7o0csYEvgpVTiLvItE3b94s/8Dr16+rqqQTO9GFo6NjcHDw77//rpZLkIUk+vTp02WBMmXKqCpKavpIdA1GdFOnTo0dK2bSYaILhGXr1q0RrmrpuJiZ6Og0obWN7zg+BBhWV4yw1dLGYJaxr5eXFxbA4FjqNfhzYriPWWhtVdVL2gZbjDhVlZFsJ4gRohoEIebGTvTvv/8e9Tlz5nzw4IGqekm6Dq6urqb/du0QKjwFnYB///0X+Yp/GmpM2+7EfRjtxdE0Yzyqao0ePXpUoEABmbtmzRpVa3Ts2DHpIpw5c0ZVvaRdzODs2bPoAN29e1fNiIcs/D4TXeDzy3ULEu59y1+kTZs2qpxE3kWia7uf0KNVVUknvkTXoDs4c+bMhw8fqifExUISXTtZuW3btqqKkprOEl14enp2797977//Vk8wm3XvR0/AkydPFi5cKEcfYOJtjj5AlmOYiEQZOnRo+fLl8V2rGUZopv/4449WrVppm4KRWCDTcZo8efL58+ednJzQ51BVL+EDyzHzcgt9TYw3jSHOuWjyZDyNkU3so/NCQkLwiCjdsWOH1ID2Ovi6li5diiGmg4MDBtNYxvSI/UR8GNDq8YINGjSQaeHi4iInOoPpDnuYNWsWvmH0PGKf6KhdqgmJniZNmoR7eMkInx89mOrVq6Ovg3y9f/++mvGqsLAwPGo9G0uWLVs2fOGYwDcvNe/TkSNHOnTo4O3t/fnnn1+4cEHVWqSjR4/KRIsWLWQCzDxaBTBr+fLloaGhVatWRTuGH/zw4cNjLKMZOXJkt27devbsieFHv3790JsZOHDgkCFDsGZhAjU9evSIfYQH3gIf47VH2ABGBRg7tm/fvkqVKmXLlkVvBh8GTR9+3moJIzMXo4Tdu3dvypQp+fLlq1GjxurVq/FnUjNeR7eJrjlw4MBHH33k4+ODn3XiDm0TSBT8NDGsj4yMvHz58qZNm8aMGVOuXDk123gTCzn76LVk1IsRfOzD48Hf3x+PaKqwbkgNyDg1PnHOxe9AXkFeMAat0vSIQu11GjVq5ObmJtNQqVIlRLsqJOrDgFZfvHhxmTClHTYc45wC9FLxiHePvY1EtnOAtdxc/9SpU127dkUcom2N3S5fNd4XIHPmzFK0cHLMl3zmZHH79u1vvvkGa2VQUNCWLVswOlEzLMalS5fkcrkYoMu19saNG4chATpD6N7NmDEjPDwcXepatWohg/FPWLZsmekh8SdPngwICEAwY1XFI6Dj++WXXxYqVGjEiBFPYx0tiL7vkiVL8KYRRv/++y9eDX+gXbt2ff311+PHj582bVqMleiXX37JmTMnkgM9hmHDhqHTgKHLhx9+iK5SjKMp0ZjkyJFjw4YNtWvXxpJdunTBAvgwyGzTXp2Zi5H5tm7dip4Wfuf48dy6dUvVJkCG6tYoEWMyBEOTJk0w4pRXMHOre8I2b96s3SgXjYuqNYpzq3tUVJQsnC5dOnSrsZrNmzdv8eLFCxcuRJ8AY7jChQvLAufOnVPPMRhk4B7fhm6sMJgbY0M3Vkvjy6RANxnrM1b4BQsW4I3w+OOPP2q7w1u3bq2eYLwbnlRieVUVl0R8GNBefOLEiarKhHagO3r3qsqoadOmUo9elKp6CR8S9SlTpsSoV1UlSF7n/W91jw+GZfgw6H3jFbRtSBs3bpTXTCrvYqs7yOHun376qSonHUSXfBVvJG/evEgmbe9jsm91v3btGsIbs4oWLartIDDnaBVZEtmMfmrp0qXRiEuNQDrKkljLYhxxgvZQLtFh6smTJ9pBKogEVWtk5hE2cOzYMXd3d/Q8VPklufQW+g1SNHOxJKfLre5xQpcOvcNDhw6pV4nL/yc6/h7qeTYAqYlUQ/dHim+T6KAdKIRmRVUZxZno2nZCrIHoGmvQba9Xrx4CLDQ0FEk/f/589N/VcxIVom3atDG+T/R+R/UeVauiNcEq17Bhw5CQEDTHWNkOHjyonvC60NW8z0SXw+IA4xhVZfTixQu0d6hPuPNhSl4HQxCZsBB+fn74N+IXKEXTIyXNh5/KlStX0OmJDU0zfu2qEEuij6uXXR6WdtksT09P2f6RLIk+c+ZMDE/Rae7Xr1/atGkRb6NGjTJdi8Vrj1bBo+zU0M55MdWxY0fjs18JXSS3vb197MNl5HBLQMOiqoze6AgbyX60FVLU4GOjEdN6UWYuluQk0S1tvX6nypQps3TpUvzR1VdgwkYTHWrUqDF16lSZfstEB7mbXvHixVXZKM5E19ruIkWKqCozJCJE0Zszvk+KlStXqqrXscBEj4qKQj8J9Q4ODmjCpH1E69ChQwfUjBgxQhYzh7y+Ba75AQEBGJPJdOISPTg4WJ7+ptBwm7mFIwbLTHTw9vYeO3asHJ75nhMdnUt0ytFpbtmyJYItPDxcFovh999/l2dhHTE9vm/Hjh0yXJa/ZsmSJaU+hnPnzsnGc2dn57CwMKnE6jNw4ECZ1ixfvtz4PtEHZ2ABVWswIMXlVNIvvvhCVZmYM2eOPGvevHlSI/sWEdhSNIVVUo4CBjMXS3I2mOjovTVp0uTo0aPqKzBhh//LQuita78Aq9CrVy+076pgNhcXl3bt2uG5+fLl27NnjzRJSFlJqThhda1cubK2aT1OGBOcPHmyRYsWprvSM2XKdOPGDSS6ti0Lnj9/js+Ax9SpU5u/7cXX1/fSpUtYyeO8diBCFHmJBgKNiKpKkWL48OGyjW7SpEn490plwvbt24feHyYQur1795bK2BLxYSDhF0euyKFzSPRZs2ZJpbh79y4GPeiX3Lp1y8nJCU02fqsNGjQYNmyYtivdHNIO4mtJ8n3VeM1E7FF2NJ6Oha8CjZH2z9++fXuVKlVkAfPh54TfkrYum0K7PH/+/G3btqnyqzCOBFV4E+gQb926tVWrVrL5PQmtWLEicbeBwQ/ys88+a9SoEb7YwoULnzhxAok+ZswYNfsdQKuKT4sJNBHa7qHX0laEbt26xTgzFtBiyDEKH3/8Mf52UhlDUFDQmjVrMPHtt9/GdwsA/PPRU0R4Y3x88ODB3LlzqxkpUqD7KAfGzpw5MzQ0VCo1WquIL3PcuHGYqF69On4/SBF0oLt27Zo2bVrjgjGZuViS69Kly/Tp07HWmB5+aOEwUEmggU0AWgn0YLp37x5vYBlz3Srhl6r+Debx9/dHlkjDJ8zcj46Rd8I7X9HRlgPHsHqrKqP4zl7TLsOS8PnTpnLmzInlEWCqbEI2amFujGGx1hzgt66qXsfMMXoiPgwkbowukFgYT6ChwTd2+vTpF4m6CIO8viXsR8eXM3LkyBgnc8uVX5ctW6bKSeQd7UeXwxsHDBigyknnTfeju7q64jfz559/qucbJft+9ARoK0KcO4y0YdWgQYNUVSz48cgy6FGpqlehy6t1dlevXq1qX3rTI2xMr/2AbjH+9AjshQsXxrjmh5mLJTkb2Y9etGjR1560CQkdtKwbNWvWXLdu3T///INukXYBOPMhpRK+qPsvv/yCyMFIK8ZJWSL2iXPNmzeXCTm2yxyylQyjXi35NBiFREZGqoKJevXqyfHqv/32W3xnpCROIj7M27h58yZGhD/99NPGjRsR6hhtyGjbGmFwhhHShQsXBg8eLEMxjey4QfMnRQuH7gge0TWRYrLw8fH5+uuvr1y5gkwqZrwjnHXRzv4wpW3ZinOukC41ILllwhT6uxitSpM1ZMiQ2BcV1o6oxzJoGBctWjRnzhx8h5hAEcMbOcJGG0S2a9cOw245owSZgcZk2rRpyHv8gJs1a6a9mpmL0RtxdHTEt4eRzJEjR0JDQ01PQYqTnhPd03iSPoJ806ZN6MElsIYkLCoq6vvvv4+I505TeP0uXbpkyJABvdEYbyGHt5w6dUoLOema9erVS373q1at+uqrr4xzXoFmHT1rVTCSjWboHAwdOlQ7sxPdCDz9119/lT3N6HlIvUBCaKfIN23aVE53jmHNmjWma5p2SkyMl4ohER8GzHzx2HPRsmzfvh3fGN5CVVkb7SDVvXv3BgcHy18/BjmfML6zjS3K/fv35Q5Gvr6+UvOeVa5cGd1o/KQxoEyfPr2q1QWtDUngQt/aFtc4t2zjO5FjdWvXrj18+HCpNKV1iIcNG7btpa1bt27YsGHlypUYrGOk0aNHjw8++EAWA/QMkPSor1KlCn7MUonYXr58OXoMWiNg5mJkDi8vr0GDBqH3v2zZMvMPWNFnoiNy5MgUJHECd0E1E4YjZ86ckcuDmJ4R+O+//2KVKF68OGbt2LFDksyUnDeCOMcyISEhBQoUkP1SGNnMnj1b1iusA2ie8Dc7d+4c3mjnzp1YIdG4x+h9t2/fXiYmTZqEt0M8YKCfK1curLpYG2VXKD7P5cuXZTExevRoOWAEnXF8mIEDBx44cADdhb/++gtD3vLly/ft21e6HeLgwYMysW/fvtgnvGoS92G0F0ewJbBunzhxIsa9avbs2YPHs2fPorOPb7Lcq9BSjBo1Ss68t0ByTWKMIzEM0s65jxO+QDyaXh7AYuH3IxOme2ffAwxQOnTocOzYsd9++61x48ayq0tn8ufPLxOIRpmITdtmqy2sWbp06TfffIMJ/JyQzXFuzdL2+iXwFrFlyZIFY3f0re/evYvmrl+/frKmo0kBWQbMXIwSULJkyQULFqBLhzESGhBVayZ0oKxU7P3o+PliLL5x40YEhlooQebsR8e4ECNd2SIKeAvkMZpmuYYaojeBXWgYvpsOYoKCgjAAVfMMBoRfvnz51DwTCK0Y++MF+hNatxdcXV3RG5B7gcjwTuCjmh7cjv5Er169Yrd9KVOm7Nq1KwboslilSpVkW7oGYwW8FPr4skAMb/RhatasGePFnZ2dseZjlC+vBqYb8PFpEd7o08gsdD5ee5QN3hT/Ulk+PrLke9uPXrFiRfw2zD/EV27P5eHhkbRHBb+L/eg//vgjPiryNWk/qohzPzpCCEGl/SReyyr2o8d5QIl2iCXaN9MD1E3JuWcQ4+iBI0eOyFZZhCj6Par2JYxw0OfGxJseYTN//nwMCVTBxJYtW+R1fvnlFxTNXCzJ6WY/OlrFVq1aJXzl8tfSSaJjGrkV+9LfCTP/CjNoudDrnDp1KgbQGCWg4zl58mR0OU0TOk6PHj3atWvXkiVL8PTYC6PngdUbI2mEa+/evTHkRSdAzYsL1nC8KQb0e/fuNb2MeUREBNIUr4bPifrYp8BixDx37lw0cJ06dRo6dChSVtJXg7YSiYiIRQ8GRYySMerFy8bXpoD5HwY12oujHi9+//59fCT1BCPUYzE5wxJL4vOgRmY9fPgQHQs0VW3btkWndfz48RMmTPjyyy979uxpOup97VFasti7TnQ5UAttq5pntlOnTskrmHkzEjO9i0SXW+VWrVpVlZNUjETHu+DnKj9L872fRG/YsKF8SIyMVZUZXnv8qXYiVuxzu0WzZs0wt3r16qpsdOPGDW38gE6wqjWBVwsNDcXErVu3tN2xhw8flrkJCAwMRPOlCiawmsuLHD9+HEUzF0tyOkj0OA+VTRyrT/T8+fNPmzYtgeBJgPmJTsll0aJF+Ll7eXmhHVRVr1qzZo1sgahQoYKqiof8rd9doqM9HTt2bIyeyhuRkyOGDBmiykkhyRMdvS450Q7/WFWVpCTRU6ZMiZZau4bam3o/iY5MxbvA7NmzVZUZ0MWXZ33zzTeq6lX79++XreX4RcW4ZhxcuHDB3t4+derUprfxQL+5rPE6EBDjWkya5s2bo0Ms0xhCyMJ+fn5xDqxXr16tBQzWLHSjZdqUtJ+VK1eWopmLJTmrTvTy5cvHd62YxLHiRMdIaNu2bdpILhGY6BZOO0xs06ZNqiou5YyXtihWrJgqx0Ne6l0keu/evVetWvXaDTavJQcooJOqyknhxx9/jO9aQImjXSHx1KlTqipJzZw5E6NJNHmqnCjvIdERhNrOoEaNGsXY6JUA7TKITZo0ia8pHzhwoCxToECBqyY3hv/f//6H/ln69Ol37typqozbt7RLDBUtWhSRb7weYDR8SAQ/Gjp8pe7u7gsXLpSn4OvVtgSgfzZgwAB0I/Di6EItXrwYK1Tu3Lm1TX2YxjJobKUozpw54+/vj1laF9bMxZKcNSY6hqBY2WPsNEkSVpzob4+JbuHkDFdnZ+eEN7rWrVsXi7Vo0UKV42H8U7+TRE8qO17eB8/00rxvCc10nNtCE03CA8mhyhbpnSZ6zZo1ZSuFKYyq06VLN2PGDLVQXN7oaBWMkuVgHfQbEFoY/rZt2zZr1qwhISEx2qv58+fLq72W6V0DzDzCBqueHNoGxYsXb9OmDebWqFHDw8MDT9fG8WYu9i5YY6K/O/9/zTgbZOY14yi5zJ07t127do6Ojvfv3zc9EM8UfsBo+G7fvr1u3Tqs1ao2LrIlE4kuPQALhMFWjhw5MLRK4HphyevatWtYU549ezZlypRu3bqpWsvzTq8ZhwEughA/SDwCfoHIs6dPnz5+/BiV2i7q2CIiIvBjxjJ4RJbjKYBhOopx3oYRoYtfNUZyeEeMy/Pnz4/OROwrHuJ9Hz58iJdF3xefB79z/JDwkeRRyHSaNGlinDl569YtrBGnTp3CZ8MrI4xr1arl6uqqZhvhxX///fdDhw4h5vFefn5+uXLlKl++fIzLaJq5WJKTa8Zh3cd3papsWXSs2yqO0S2cdlebrVu3qqpY5Ljr2rVrq3L85KUseYwOY8eOxYdEs4tcV1WWRC43lipVqrfcKv6uvZ/96GQJOEY3pecrzJC18/X17d69OyY6deqEUbhUmlqzZk3Xrl1LlSplejl9q9axY8fUqVNj6BbntUGSl1zgAROffPJJIq69SETvGhOdLNp3333Xs2dPDFjz5s07ceLEw4cPI9qPHTu2dOnSatWqhYaGjh8/fvfu3boJmLRp02JkiYnZs2f/maTX7n17gwYNioqK8vDw0C4MTkQWhYlOFs3Ozm7y5MlhYWEYpm/btu2jjz7Kly9fs2bNFi1a1KBBg/Pnz/fo0UPucaIbvXv39vHxefHiBYbCzy3mwrc7d+6UXfvIdTlii4gsDROdrIBcS3Xt2rUnT568cePGP//8s3r1aozd4zyeyNq5ubnJnfsPHDggu9WT3Z07d+QeAehO9evXTyqJyNIw0YksTv369eUksS+//HLv3r1SmVwMBkNoaGhYWJi9vf2cOXMcHR3VDCKyMEx0Iks0c+bMXLlyPX36tHnz5ufOnVO1yWHAgAErVqzAxLhx4wICAqSSiCwQE53IEnl4eKxcudLNzS08PLxWrVo3b95UM96viRMnypb/li1bfvrpp1JJRJaJiU5koQoXLrx8+XInJ6ezZ89icJzADbPfkQkTJkiKV6lSZc6cOXKJHiKyWEx0IstVp06dBQsW2Nvbnz9/vkyZMu/t7ukGg2HAgAF9+/bFdKlSpdasWaOzEwqIdImJTmTRgoODly1b5ubmdvXqVYzUzb+Id6Ldvn27fv36cv3UChUqbNy4McbVyInIMjHRiSxdkyZNduzYkTFjxgcPHrRp06Z169a3bt1S85Lapk2bChYsKJfIDgkJ2bJli3aHMSKycEx0IitQqlSpI0eOyI2FFi1aVKBAgdmzZ7948ULmJolLly61aNGiVq1a169fd3Fx+f777xcvXowJNZuILB4Tncg6ZM2adefOnaNHj3Zycrpx40ZoaGihQoXmzZv35MkTtURinTt3rnPnznny5Fm6dCmKxYsXP3TokFxRn4isCBOdyGrY2dkNGDDg+PHjQUFBKJ46dapt27b+/v79+vXDtCxjvocPHy5btqx27dp58+b9z3/+8/jx43Tp0k2dOvXgwYMFCxZUCxGR9WCiE1kZBPCqVav27t2LMEbGX758efz48QUKFMAgu2PHjnKLlwcPHqilTTx//jw8PHzjxo0jR44MDAxEfgcHB6OIei8vr6FDh164cKFr16729mwWiKwSV10iq1SmTJn169f/9ddf3bp1y5o1K2rOnDkzc+bM0NDQEiVKeHh4ZMuWDRn/gVGRIkX8/Pw8PT29vb3RD0B4b968GYNyBweHSpUqzZgxA92C4cOHYwF5cSKyRkx0IiuWL1++KVOmII937do1cODAgIAAd3d3mXX16lVk/GGj48ePh4WFRUVFyawcOXJgdI7R/JUrV3bs2IGRPU83J9IBO4PBoCZtz549e+Tg4YsXL2bPnl0qSa/kkmdr166tW7eu1OjSixcvzp8/j7H7jRs3TE9yc3FxyZgxY86cOQsVKpQqVSpVq1OFCxc+ceJE//795ax60rEuXbpMnz69Tp06csqljeMYnUhX7O3t/f39g4KCOnTogEjT9O7du1WrVmXLltV9nBPZLCY6ERGRHjDRiYiI9ICJTkREpAdMdCIiIj1gohMREekBE52IiEgPmOhERER6wEQnIiLSAyY6ERGRHjDRiYiI9IDXdY++rnu5cuVcXV2lkvRq27ZteNT9dd0J5Lruvr6+/v7+qop06u+//w4PD+d13QUTPTrRyXYw0W2BJLoqkA1gogubTvSzZ8+OHTv2zp07qkx6lypVqt69e6O5V2XSqREjRvzzzz9PnjxRZdI1FxeXgICA7t27q7INs+lEJyIi0g0eGUdERKQHTHQiIiLrlyLF/wGZX7W3QELYlgAAAABJRU5ErkJggg==;" parent="1" vertex="1">
          <mxGeometry x="326.52" y="372.91" width="136.96098562628336" height="44.969199178644764" as="geometry" />
        </mxCell>
        <mxCell id="OsGpNBEIPA-UDgHcJY4G-16" style="edgeStyle=orthogonalEdgeStyle;rounded=0;orthogonalLoop=1;jettySize=auto;html=1;exitX=1;exitY=0.5;exitDx=0;exitDy=0;entryX=0;entryY=0.5;entryDx=0;entryDy=0;fontFamily=Open Sans Condensed;fontSource=https%3A%2F%2Ffonts.googleapis.com%2Fcss%3Ffamily%3DOpen%2BSans%2BCondensed;fontSize=9;fontColor=#808080;endArrow=open;endFill=0;startSize=3;endSize=3;" parent="1" source="OsGpNBEIPA-UDgHcJY4G-11" target="OsGpNBEIPA-UDgHcJY4G-14" edge="1">
          <mxGeometry relative="1" as="geometry" />
        </mxCell>
        <mxCell id="OsGpNBEIPA-UDgHcJY4G-11" value="&lt;font data-font-src=&quot;https://fonts.googleapis.com/css?family=Lora&quot; face=&quot;Lora&quot; style=&quot;font-size: 16px;&quot;&gt;I&lt;/font&gt;" style="rounded=0;whiteSpace=wrap;html=1;fontStyle=1;fontSize=16;align=center;" parent="1" vertex="1">
          <mxGeometry x="260" y="510" width="20" height="20" as="geometry" />
        </mxCell>
        <mxCell id="OsGpNBEIPA-UDgHcJY4G-14" value="&lt;font data-font-src=&quot;https://fonts.googleapis.com/css?family=Lora&quot; style=&quot;font-size: 9px ; font-weight: normal&quot;&gt;Amp.&lt;/font&gt;" style="rounded=0;whiteSpace=wrap;html=1;fontStyle=1;fontSize=9;fontFamily=Open Sans Condensed;fontSource=https%3A%2F%2Ffonts.googleapis.com%2Fcss%3Ffamily%3DOpen%2BSans%2BCondensed;" parent="1" vertex="1">
          <mxGeometry x="290" y="510" width="20" height="20" as="geometry" />
        </mxCell>
        <mxCell id="OsGpNBEIPA-UDgHcJY4G-17" style="edgeStyle=orthogonalEdgeStyle;rounded=0;orthogonalLoop=1;jettySize=auto;html=1;entryX=0;entryY=0.5;entryDx=0;entryDy=0;fontFamily=Open Sans Condensed;fontSource=https%3A%2F%2Ffonts.googleapis.com%2Fcss%3Ffamily%3DOpen%2BSans%2BCondensed;fontSize=9;fontColor=#808080;endArrow=open;endFill=0;startSize=3;endSize=3;exitX=1;exitY=0.5;exitDx=0;exitDy=0;" parent="1" source="OsGpNBEIPA-UDgHcJY4G-18" target="OsGpNBEIPA-UDgHcJY4G-11" edge="1">
          <mxGeometry relative="1" as="geometry">
            <mxPoint x="230" y="520" as="sourcePoint" />
            <mxPoint x="250" y="520" as="targetPoint" />
          </mxGeometry>
        </mxCell>
        <mxCell id="OsGpNBEIPA-UDgHcJY4G-18" value="" style="ellipse;whiteSpace=wrap;html=1;aspect=fixed;fontFamily=Open Sans Condensed;fontSource=https%3A%2F%2Ffonts.googleapis.com%2Fcss%3Ffamily%3DOpen%2BSans%2BCondensed;fontSize=9;fontColor=#808080;" parent="1" vertex="1">
          <mxGeometry x="240" y="515" width="10" height="10" as="geometry" />
        </mxCell>
        <mxCell id="OsGpNBEIPA-UDgHcJY4G-20" style="edgeStyle=orthogonalEdgeStyle;rounded=0;orthogonalLoop=1;jettySize=auto;html=1;fontFamily=Open Sans Condensed;fontSource=https%3A%2F%2Ffonts.googleapis.com%2Fcss%3Ffamily%3DOpen%2BSans%2BCondensed;fontSize=9;fontColor=#808080;endArrow=open;endFill=0;startSize=3;endSize=3;entryX=0;entryY=0.5;entryDx=0;entryDy=0;exitX=1;exitY=0.5;exitDx=0;exitDy=0;" parent="1" source="OsGpNBEIPA-UDgHcJY4G-27" target="OsGpNBEIPA-UDgHcJY4G-18" edge="1">
          <mxGeometry relative="1" as="geometry">
            <mxPoint x="220" y="520" as="sourcePoint" />
            <mxPoint x="220" y="520" as="targetPoint" />
          </mxGeometry>
        </mxCell>
        <mxCell id="OsGpNBEIPA-UDgHcJY4G-21" style="edgeStyle=orthogonalEdgeStyle;rounded=0;orthogonalLoop=1;jettySize=auto;html=1;exitX=1;exitY=0.5;exitDx=0;exitDy=0;fontFamily=Open Sans Condensed;fontSource=https%3A%2F%2Ffonts.googleapis.com%2Fcss%3Ffamily%3DOpen%2BSans%2BCondensed;fontSize=9;fontColor=#808080;endArrow=open;endFill=0;startSize=3;endSize=3;entryX=0;entryY=0.5;entryDx=0;entryDy=0;" parent="1" source="OsGpNBEIPA-UDgHcJY4G-14" target="OsGpNBEIPA-UDgHcJY4G-25" edge="1">
          <mxGeometry relative="1" as="geometry">
            <mxPoint x="340" y="520" as="sourcePoint" />
            <mxPoint x="360" y="520" as="targetPoint" />
          </mxGeometry>
        </mxCell>
        <mxCell id="OsGpNBEIPA-UDgHcJY4G-23" style="edgeStyle=orthogonalEdgeStyle;rounded=0;orthogonalLoop=1;jettySize=auto;html=1;exitX=0.5;exitY=1;exitDx=0;exitDy=0;entryX=0.5;entryY=1;entryDx=0;entryDy=0;fontFamily=Open Sans Condensed;fontSource=https%3A%2F%2Ffonts.googleapis.com%2Fcss%3Ffamily%3DOpen%2BSans%2BCondensed;fontSize=9;fontColor=#808080;endArrow=open;endFill=0;startSize=3;endSize=3;" parent="1" source="OsGpNBEIPA-UDgHcJY4G-22" target="OsGpNBEIPA-UDgHcJY4G-18" edge="1">
          <mxGeometry relative="1" as="geometry">
            <Array as="points">
              <mxPoint x="320" y="540" />
              <mxPoint x="245" y="540" />
            </Array>
          </mxGeometry>
        </mxCell>
        <mxCell id="OsGpNBEIPA-UDgHcJY4G-22" value="" style="ellipse;whiteSpace=wrap;html=1;aspect=fixed;fontFamily=Open Sans Condensed;fontSource=https%3A%2F%2Ffonts.googleapis.com%2Fcss%3Ffamily%3DOpen%2BSans%2BCondensed;fontSize=9;fontColor=#808080;fillColor=#000000;" parent="1" vertex="1">
          <mxGeometry x="318" y="518" width="4" height="4" as="geometry" />
        </mxCell>
        <mxCell id="OsGpNBEIPA-UDgHcJY4G-25" value="&lt;font data-font-src=&quot;https://fonts.googleapis.com/css?family=Lora&quot; style=&quot;font-size: 9px ; font-weight: normal&quot;&gt;Mot.&lt;/font&gt;" style="rounded=0;whiteSpace=wrap;html=1;fontStyle=1;fontSize=9;fontFamily=Open Sans Condensed;fontSource=https%3A%2F%2Ffonts.googleapis.com%2Fcss%3Ffamily%3DOpen%2BSans%2BCondensed;" parent="1" vertex="1">
          <mxGeometry x="330" y="510" width="20" height="20" as="geometry" />
        </mxCell>
        <mxCell id="OsGpNBEIPA-UDgHcJY4G-27" value="&lt;font data-font-src=&quot;https://fonts.googleapis.com/css?family=Lora&quot; face=&quot;Lora&quot; style=&quot;font-size: 16px&quot;&gt;V&lt;/font&gt;" style="rounded=0;whiteSpace=wrap;html=1;fontStyle=1;fontSize=16;align=center;" parent="1" vertex="1">
          <mxGeometry x="210" y="510" width="20" height="20" as="geometry" />
        </mxCell>
        <mxCell id="OsGpNBEIPA-UDgHcJY4G-28" value="&lt;font data-font-src=&quot;https://fonts.googleapis.com/css?family=Lora&quot; face=&quot;Lora&quot; style=&quot;font-size: 16px&quot;&gt;P&lt;/font&gt;" style="rounded=0;whiteSpace=wrap;html=1;fontStyle=1;fontSize=16;align=center;" parent="1" vertex="1">
          <mxGeometry x="160" y="510" width="20" height="20" as="geometry" />
        </mxCell>
        <mxCell id="OsGpNBEIPA-UDgHcJY4G-29" style="edgeStyle=orthogonalEdgeStyle;rounded=0;orthogonalLoop=1;jettySize=auto;html=1;fontFamily=Open Sans Condensed;fontSource=https%3A%2F%2Ffonts.googleapis.com%2Fcss%3Ffamily%3DOpen%2BSans%2BCondensed;fontSize=9;fontColor=#808080;endArrow=open;endFill=0;startSize=3;endSize=3;exitX=1;exitY=0.5;exitDx=0;exitDy=0;entryX=0;entryY=0.5;entryDx=0;entryDy=0;" parent="1" source="OsGpNBEIPA-UDgHcJY4G-30" target="OsGpNBEIPA-UDgHcJY4G-27" edge="1">
          <mxGeometry relative="1" as="geometry">
            <mxPoint x="180" y="520" as="sourcePoint" />
            <mxPoint x="200" y="500" as="targetPoint" />
          </mxGeometry>
        </mxCell>
        <mxCell id="OsGpNBEIPA-UDgHcJY4G-30" value="" style="ellipse;whiteSpace=wrap;html=1;aspect=fixed;fontFamily=Open Sans Condensed;fontSource=https%3A%2F%2Ffonts.googleapis.com%2Fcss%3Ffamily%3DOpen%2BSans%2BCondensed;fontSize=9;fontColor=#808080;" parent="1" vertex="1">
          <mxGeometry x="190" y="515" width="10" height="10" as="geometry" />
        </mxCell>
        <mxCell id="OsGpNBEIPA-UDgHcJY4G-31" style="edgeStyle=orthogonalEdgeStyle;rounded=0;orthogonalLoop=1;jettySize=auto;html=1;fontFamily=Open Sans Condensed;fontSource=https%3A%2F%2Ffonts.googleapis.com%2Fcss%3Ffamily%3DOpen%2BSans%2BCondensed;fontSize=9;fontColor=#808080;endArrow=open;endFill=0;startSize=3;endSize=3;entryX=0;entryY=0.5;entryDx=0;entryDy=0;exitX=1;exitY=0.5;exitDx=0;exitDy=0;" parent="1" source="OsGpNBEIPA-UDgHcJY4G-28" target="OsGpNBEIPA-UDgHcJY4G-30" edge="1">
          <mxGeometry relative="1" as="geometry">
            <mxPoint x="180" y="520" as="sourcePoint" />
            <mxPoint x="170" y="520" as="targetPoint" />
          </mxGeometry>
        </mxCell>
        <mxCell id="OsGpNBEIPA-UDgHcJY4G-32" style="edgeStyle=orthogonalEdgeStyle;rounded=0;orthogonalLoop=1;jettySize=auto;html=1;exitX=1;exitY=0.5;exitDx=0;exitDy=0;fontFamily=Open Sans Condensed;fontSource=https%3A%2F%2Ffonts.googleapis.com%2Fcss%3Ffamily%3DOpen%2BSans%2BCondensed;fontSize=9;fontColor=#808080;endArrow=open;endFill=0;startSize=3;endSize=3;entryX=0;entryY=0.5;entryDx=0;entryDy=0;" parent="1" source="OsGpNBEIPA-UDgHcJY4G-25" target="OsGpNBEIPA-UDgHcJY4G-35" edge="1">
          <mxGeometry relative="1" as="geometry">
            <mxPoint x="392" y="529.78" as="sourcePoint" />
            <mxPoint x="400" y="520" as="targetPoint" />
          </mxGeometry>
        </mxCell>
        <mxCell id="OsGpNBEIPA-UDgHcJY4G-33" value="" style="ellipse;whiteSpace=wrap;html=1;aspect=fixed;fontFamily=Open Sans Condensed;fontSource=https%3A%2F%2Ffonts.googleapis.com%2Fcss%3Ffamily%3DOpen%2BSans%2BCondensed;fontSize=9;fontColor=#808080;fillColor=#000000;" parent="1" vertex="1">
          <mxGeometry x="358" y="518" width="4" height="4" as="geometry" />
        </mxCell>
        <mxCell id="OsGpNBEIPA-UDgHcJY4G-34" style="edgeStyle=orthogonalEdgeStyle;rounded=0;orthogonalLoop=1;jettySize=auto;html=1;exitX=0.5;exitY=1;exitDx=0;exitDy=0;entryX=0.5;entryY=1;entryDx=0;entryDy=0;fontFamily=Open Sans Condensed;fontSource=https%3A%2F%2Ffonts.googleapis.com%2Fcss%3Ffamily%3DOpen%2BSans%2BCondensed;fontSize=9;fontColor=#808080;endArrow=open;endFill=0;startSize=3;endSize=3;" parent="1" source="OsGpNBEIPA-UDgHcJY4G-33" target="OsGpNBEIPA-UDgHcJY4G-30" edge="1">
          <mxGeometry relative="1" as="geometry">
            <mxPoint x="350" y="532" as="sourcePoint" />
            <mxPoint x="255" y="535" as="targetPoint" />
            <Array as="points">
              <mxPoint x="360" y="550" />
              <mxPoint x="195" y="550" />
            </Array>
          </mxGeometry>
        </mxCell>
        <mxCell id="OsGpNBEIPA-UDgHcJY4G-35" value="&lt;font data-font-src=&quot;https://fonts.googleapis.com/css?family=Lora&quot; style=&quot;font-size: 9px ; font-weight: normal&quot;&gt;\(\int dt\)&lt;/font&gt;" style="rounded=0;whiteSpace=wrap;html=1;fontStyle=1;fontSize=9;fontFamily=Open Sans Condensed;fontSource=https%3A%2F%2Ffonts.googleapis.com%2Fcss%3Ffamily%3DOpen%2BSans%2BCondensed;" parent="1" vertex="1">
          <mxGeometry x="370" y="510" width="30" height="20" as="geometry" />
        </mxCell>
        <mxCell id="OsGpNBEIPA-UDgHcJY4G-36" style="edgeStyle=orthogonalEdgeStyle;rounded=0;orthogonalLoop=1;jettySize=auto;html=1;fontFamily=Open Sans Condensed;fontSource=https%3A%2F%2Ffonts.googleapis.com%2Fcss%3Ffamily%3DOpen%2BSans%2BCondensed;fontSize=9;fontColor=#808080;endArrow=open;endFill=0;startSize=3;endSize=3;exitX=1;exitY=0.5;exitDx=0;exitDy=0;entryX=0;entryY=0.5;entryDx=0;entryDy=0;" parent="1" source="OsGpNBEIPA-UDgHcJY4G-37" edge="1">
          <mxGeometry relative="1" as="geometry">
            <mxPoint x="130" y="520" as="sourcePoint" />
            <mxPoint x="160" y="520" as="targetPoint" />
          </mxGeometry>
        </mxCell>
        <mxCell id="OsGpNBEIPA-UDgHcJY4G-37" value="" style="ellipse;whiteSpace=wrap;html=1;aspect=fixed;fontFamily=Open Sans Condensed;fontSource=https%3A%2F%2Ffonts.googleapis.com%2Fcss%3Ffamily%3DOpen%2BSans%2BCondensed;fontSize=9;fontColor=#808080;" parent="1" vertex="1">
          <mxGeometry x="140" y="515" width="10" height="10" as="geometry" />
        </mxCell>
        <mxCell id="OsGpNBEIPA-UDgHcJY4G-38" value="p&lt;sub&gt;soll&lt;/sub&gt;" style="edgeStyle=orthogonalEdgeStyle;rounded=0;orthogonalLoop=1;jettySize=auto;html=1;fontFamily=Open Sans Condensed;fontSource=https%3A%2F%2Ffonts.googleapis.com%2Fcss%3Ffamily%3DOpen%2BSans%2BCondensed;fontSize=9;fontColor=#000000;endArrow=open;endFill=0;startSize=3;endSize=3;entryX=0;entryY=0.5;entryDx=0;entryDy=0;align=left;" parent="1" target="OsGpNBEIPA-UDgHcJY4G-37" edge="1">
          <mxGeometry x="-1" y="10" relative="1" as="geometry">
            <mxPoint x="120" y="520" as="sourcePoint" />
            <mxPoint x="120" y="520" as="targetPoint" />
            <mxPoint as="offset" />
          </mxGeometry>
        </mxCell>
        <mxCell id="OsGpNBEIPA-UDgHcJY4G-40" value="Positionsregelung" style="rounded=0;whiteSpace=wrap;html=1;fontFamily=Roboto Condensed;fontSource=https%3A%2F%2Ffonts.googleapis.com%2Fcss%3Ffamily%3DRoboto%2BCondensed;fontSize=7;fillColor=#E1F5E0;strokeColor=#82b366;verticalAlign=top;align=left;spacingTop=-15;fontStyle=0;spacingLeft=-1;" parent="1" vertex="1">
          <mxGeometry x="130" y="605" width="110" height="55" as="geometry" />
        </mxCell>
        <mxCell id="OsGpNBEIPA-UDgHcJY4G-41" value="Geschwindigkeitsregelung" style="rounded=0;whiteSpace=wrap;html=1;fontFamily=Roboto Condensed;fontSource=https%3A%2F%2Ffonts.googleapis.com%2Fcss%3Ffamily%3DRoboto%2BCondensed;fontSize=7;fillColor=#dae8fc;strokeColor=#6c8ebf;verticalAlign=top;align=left;spacingTop=-15;fontStyle=0;spacingLeft=-1;" parent="1" vertex="1">
          <mxGeometry x="140" y="615" width="90" height="40" as="geometry" />
        </mxCell>
        <mxCell id="OsGpNBEIPA-UDgHcJY4G-42" value="Stromregelung" style="rounded=0;whiteSpace=wrap;html=1;fontFamily=Roboto Condensed;fontSource=https%3A%2F%2Ffonts.googleapis.com%2Fcss%3Ffamily%3DRoboto%2BCondensed;fontSize=7;fillColor=#f8cecc;strokeColor=#b85450;verticalAlign=top;align=left;spacingTop=-15;fontStyle=0;spacingLeft=-1;" parent="1" vertex="1">
          <mxGeometry x="150" y="625" width="70" height="25" as="geometry" />
        </mxCell>
        <mxCell id="OsGpNBEIPA-UDgHcJY4G-43" value="" style="endArrow=open;html=1;rounded=0;fontFamily=Roboto Condensed;fontSource=https%3A%2F%2Ffonts.googleapis.com%2Fcss%3Ffamily%3DRoboto%2BCondensed;fontSize=7;fontColor=#000000;startSize=4;endSize=4;edgeStyle=elbowEdgeStyle;elbow=vertical;endFill=0;" parent="1" edge="1">
          <mxGeometry width="50" height="50" relative="1" as="geometry">
            <mxPoint x="110" y="640" as="sourcePoint" />
            <mxPoint x="130" y="640" as="targetPoint" />
          </mxGeometry>
        </mxCell>
        <mxCell id="OsGpNBEIPA-UDgHcJY4G-44" value="" style="endArrow=open;html=1;rounded=0;fontFamily=Roboto Condensed;fontSource=https%3A%2F%2Ffonts.googleapis.com%2Fcss%3Ffamily%3DRoboto%2BCondensed;fontSize=7;fontColor=#000000;startSize=4;endSize=4;edgeStyle=elbowEdgeStyle;elbow=vertical;endFill=0;" parent="1" edge="1">
          <mxGeometry width="50" height="50" relative="1" as="geometry">
            <mxPoint x="120" y="640" as="sourcePoint" />
            <mxPoint x="140" y="639.9999999999999" as="targetPoint" />
          </mxGeometry>
        </mxCell>
        <mxCell id="OsGpNBEIPA-UDgHcJY4G-45" value="" style="endArrow=open;html=1;rounded=0;fontFamily=Roboto Condensed;fontSource=https%3A%2F%2Ffonts.googleapis.com%2Fcss%3Ffamily%3DRoboto%2BCondensed;fontSize=7;fontColor=#000000;startSize=4;endSize=4;edgeStyle=elbowEdgeStyle;elbow=vertical;endFill=0;" parent="1" edge="1">
          <mxGeometry width="50" height="50" relative="1" as="geometry">
            <mxPoint x="130" y="639.9999999999999" as="sourcePoint" />
            <mxPoint x="150" y="639.9999999999999" as="targetPoint" />
          </mxGeometry>
        </mxCell>
        <mxCell id="OsGpNBEIPA-UDgHcJY4G-46" value="" style="endArrow=open;html=1;rounded=0;fontFamily=Roboto Condensed;fontSource=https%3A%2F%2Ffonts.googleapis.com%2Fcss%3Ffamily%3DRoboto%2BCondensed;fontSize=7;fontColor=#000000;startSize=4;endSize=4;edgeStyle=elbowEdgeStyle;elbow=vertical;endFill=0;" parent="1" edge="1">
          <mxGeometry width="50" height="50" relative="1" as="geometry">
            <mxPoint x="120" y="640" as="sourcePoint" />
            <mxPoint x="220" y="639.9999999999999" as="targetPoint" />
          </mxGeometry>
        </mxCell>
        <mxCell id="OsGpNBEIPA-UDgHcJY4G-47" value="" style="endArrow=open;html=1;rounded=0;fontFamily=Roboto Condensed;fontSource=https%3A%2F%2Ffonts.googleapis.com%2Fcss%3Ffamily%3DRoboto%2BCondensed;fontSize=7;fontColor=#000000;startSize=4;endSize=4;edgeStyle=elbowEdgeStyle;elbow=vertical;endFill=0;" parent="1" edge="1">
          <mxGeometry width="50" height="50" relative="1" as="geometry">
            <mxPoint x="210" y="639.9999999999999" as="sourcePoint" />
            <mxPoint x="230" y="639.9999999999999" as="targetPoint" />
          </mxGeometry>
        </mxCell>
        <mxCell id="OsGpNBEIPA-UDgHcJY4G-48" value="" style="endArrow=open;html=1;rounded=0;fontFamily=Roboto Condensed;fontSource=https%3A%2F%2Ffonts.googleapis.com%2Fcss%3Ffamily%3DRoboto%2BCondensed;fontSize=7;fontColor=#000000;startSize=4;endSize=4;edgeStyle=elbowEdgeStyle;elbow=vertical;endFill=0;" parent="1" edge="1">
          <mxGeometry width="50" height="50" relative="1" as="geometry">
            <mxPoint x="220" y="639.9999999999999" as="sourcePoint" />
            <mxPoint x="240" y="639.9999999999999" as="targetPoint" />
          </mxGeometry>
        </mxCell>
        <mxCell id="OsGpNBEIPA-UDgHcJY4G-49" value="" style="endArrow=open;html=1;rounded=0;fontFamily=Roboto Condensed;fontSource=https%3A%2F%2Ffonts.googleapis.com%2Fcss%3Ffamily%3DRoboto%2BCondensed;fontSize=7;fontColor=#000000;startSize=4;endSize=4;edgeStyle=elbowEdgeStyle;elbow=vertical;endFill=0;" parent="1" edge="1">
          <mxGeometry width="50" height="50" relative="1" as="geometry">
            <mxPoint x="230" y="640" as="sourcePoint" />
            <mxPoint x="260" y="639.9999999999999" as="targetPoint" />
          </mxGeometry>
        </mxCell>
        <mxCell id="OsGpNBEIPA-UDgHcJY4G-51" value="x" style="edgeStyle=elbowEdgeStyle;rounded=0;orthogonalLoop=1;jettySize=auto;elbow=vertical;html=1;exitX=1;exitY=0.5;exitDx=0;exitDy=0;fontFamily=Roboto Condensed;fontSource=https%3A%2F%2Ffonts.googleapis.com%2Fcss%3Ffamily%3DRoboto%2BCondensed;fontSize=7;fontColor=#000000;endArrow=open;endFill=0;startSize=4;endSize=4;strokeWidth=0.5;fontStyle=0;labelBackgroundColor=none;" parent="1" source="OsGpNBEIPA-UDgHcJY4G-50" edge="1">
          <mxGeometry y="5" relative="1" as="geometry">
            <mxPoint x="180" y="730" as="targetPoint" />
            <mxPoint as="offset" />
          </mxGeometry>
        </mxCell>
        <mxCell id="OsGpNBEIPA-UDgHcJY4G-50" value="&lt;span style=&quot;font-size: 6px&quot;&gt;\(\begin{matrix}\mathsf{\frac{dx}{dt}=f(x,u)}\end{matrix}\)&lt;/span&gt;" style="rounded=0;whiteSpace=wrap;html=1;fontFamily=Roboto Condensed;fontSource=https%3A%2F%2Ffonts.googleapis.com%2Fcss%3Ffamily%3DRoboto%2BCondensed;fontSize=7;verticalAlign=middle;align=center;spacingTop=1;fontStyle=0;spacingLeft=0;strokeWidth=0.5;spacingBottom=1;" parent="1" vertex="1">
          <mxGeometry x="120" y="720" width="40" height="20" as="geometry" />
        </mxCell>
        <mxCell id="OsGpNBEIPA-UDgHcJY4G-52" value="y" style="edgeStyle=elbowEdgeStyle;rounded=0;orthogonalLoop=1;jettySize=auto;elbow=vertical;html=1;exitX=1;exitY=0.5;exitDx=0;exitDy=0;fontFamily=Roboto Condensed;fontSource=https%3A%2F%2Ffonts.googleapis.com%2Fcss%3Ffamily%3DRoboto%2BCondensed;fontSize=7;fontColor=#000000;endArrow=open;endFill=0;startSize=4;endSize=4;strokeWidth=0.5;fontStyle=0;labelBackgroundColor=none;" parent="1" source="OsGpNBEIPA-UDgHcJY4G-53" edge="1">
          <mxGeometry y="5" relative="1" as="geometry">
            <mxPoint x="180" y="770" as="targetPoint" />
            <mxPoint as="offset" />
          </mxGeometry>
        </mxCell>
        <mxCell id="OsGpNBEIPA-UDgHcJY4G-53" value="&lt;p style=&quot;line-height: 1 ; font-size: 6px&quot;&gt;\(&lt;br style=&quot;font-size: 6px&quot;&gt;\begin{matrix}&lt;br style=&quot;font-size: 6px&quot;&gt;\mathsf{\frac{dx}{dt}=f(x)\\&lt;br style=&quot;font-size: 6px&quot;&gt;y=h(x,u)}&lt;br style=&quot;font-size: 6px&quot;&gt;\end{matrix}\)&lt;/p&gt;" style="rounded=0;whiteSpace=wrap;html=1;fontFamily=Roboto Condensed;fontSource=https%3A%2F%2Ffonts.googleapis.com%2Fcss%3Ffamily%3DRoboto%2BCondensed;fontSize=6;verticalAlign=middle;align=center;spacingTop=0;fontStyle=0;spacingLeft=0;strokeWidth=0.5;spacingBottom=0;" parent="1" vertex="1">
          <mxGeometry x="120" y="755" width="40" height="30" as="geometry" />
        </mxCell>
        <mxCell id="OsGpNBEIPA-UDgHcJY4G-54" value="u" style="edgeStyle=elbowEdgeStyle;rounded=0;orthogonalLoop=1;jettySize=auto;elbow=vertical;html=1;fontFamily=Roboto Condensed;fontSource=https%3A%2F%2Ffonts.googleapis.com%2Fcss%3Ffamily%3DRoboto%2BCondensed;fontSize=7;fontColor=#000000;endArrow=open;endFill=0;startSize=4;endSize=4;strokeWidth=0.5;fontStyle=0;labelBackgroundColor=none;" parent="1" edge="1">
          <mxGeometry y="5" relative="1" as="geometry">
            <mxPoint x="120" y="770" as="targetPoint" />
            <mxPoint as="offset" />
            <mxPoint x="100" y="770" as="sourcePoint" />
          </mxGeometry>
        </mxCell>
        <mxCell id="oJWKIMN6-Hw991Id3Hjh-13" value="x&#39;" style="edgeStyle=orthogonalEdgeStyle;rounded=0;orthogonalLoop=1;jettySize=auto;html=1;exitX=1;exitY=0.5;exitDx=0;exitDy=0;entryX=0;entryY=0.5;entryDx=0;entryDy=0;fontFamily=Open Sans;fontSource=https%3A%2F%2Ffonts.googleapis.com%2Fcss%3Ffamily%3DOpen%2BSans;fontSize=8;fontColor=#000000;endArrow=open;endFill=0;startSize=4;endSize=4;strokeWidth=0.5;labelBackgroundColor=none;" parent="1" source="oJWKIMN6-Hw991Id3Hjh-1" target="oJWKIMN6-Hw991Id3Hjh-7" edge="1">
          <mxGeometry y="6" relative="1" as="geometry">
            <mxPoint as="offset" />
          </mxGeometry>
        </mxCell>
        <mxCell id="oJWKIMN6-Hw991Id3Hjh-1" value="+" style="ellipse;whiteSpace=wrap;html=1;aspect=fixed;fontFamily=Open Sans;fontSource=https%3A%2F%2Ffonts.googleapis.com%2Fcss%3Ffamily%3DOpen%2BSans;fontSize=9;fontColor=#000000;strokeWidth=0.5;" parent="1" vertex="1">
          <mxGeometry x="360" y="715" width="10" height="10" as="geometry" />
        </mxCell>
        <mxCell id="oJWKIMN6-Hw991Id3Hjh-3" style="edgeStyle=orthogonalEdgeStyle;rounded=0;orthogonalLoop=1;jettySize=auto;html=1;exitX=1;exitY=0.5;exitDx=0;exitDy=0;entryX=0;entryY=0.5;entryDx=0;entryDy=0;fontFamily=Open Sans;fontSource=https%3A%2F%2Ffonts.googleapis.com%2Fcss%3Ffamily%3DOpen%2BSans;fontSize=12;fontColor=#000000;endArrow=open;endFill=0;startSize=4;endSize=4;strokeWidth=0.5;" parent="1" source="oJWKIMN6-Hw991Id3Hjh-2" target="oJWKIMN6-Hw991Id3Hjh-1" edge="1">
          <mxGeometry relative="1" as="geometry" />
        </mxCell>
        <mxCell id="oJWKIMN6-Hw991Id3Hjh-2" value="B" style="ellipse;whiteSpace=wrap;html=1;aspect=fixed;fontFamily=Open Sans;fontSource=https%3A%2F%2Ffonts.googleapis.com%2Fcss%3Ffamily%3DOpen%2BSans;fontSize=11;fontColor=#000000;fontStyle=0;strokeWidth=1;spacingBottom=2;" parent="1" vertex="1">
          <mxGeometry x="332" y="712" width="16" height="16" as="geometry" />
        </mxCell>
        <mxCell id="oJWKIMN6-Hw991Id3Hjh-14" style="edgeStyle=orthogonalEdgeStyle;rounded=0;orthogonalLoop=1;jettySize=auto;html=1;exitX=1;exitY=0.5;exitDx=0;exitDy=0;entryX=0.5;entryY=0;entryDx=0;entryDy=0;labelBackgroundColor=none;fontFamily=Open Sans;fontSource=https%3A%2F%2Ffonts.googleapis.com%2Fcss%3Ffamily%3DOpen%2BSans;fontSize=8;fontColor=#000000;endArrow=open;endFill=0;startSize=4;endSize=4;strokeWidth=0.5;" parent="1" source="oJWKIMN6-Hw991Id3Hjh-4" target="oJWKIMN6-Hw991Id3Hjh-8" edge="1">
          <mxGeometry relative="1" as="geometry" />
        </mxCell>
        <mxCell id="oJWKIMN6-Hw991Id3Hjh-4" value="D" style="ellipse;whiteSpace=wrap;html=1;aspect=fixed;fontFamily=Open Sans;fontSource=https%3A%2F%2Ffonts.googleapis.com%2Fcss%3Ffamily%3DOpen%2BSans;fontSize=11;fontColor=#000000;fontStyle=0;strokeWidth=1;spacingBottom=2;" parent="1" vertex="1">
          <mxGeometry x="392" y="687" width="16" height="16" as="geometry" />
        </mxCell>
        <mxCell id="oJWKIMN6-Hw991Id3Hjh-12" style="edgeStyle=orthogonalEdgeStyle;rounded=0;orthogonalLoop=1;jettySize=auto;html=1;exitX=0;exitY=0.5;exitDx=0;exitDy=0;fontFamily=Open Sans;fontSource=https%3A%2F%2Ffonts.googleapis.com%2Fcss%3Ffamily%3DOpen%2BSans;fontSize=12;fontColor=#000000;endArrow=open;endFill=0;startSize=4;endSize=4;strokeWidth=0.5;" parent="1" source="oJWKIMN6-Hw991Id3Hjh-5" edge="1">
          <mxGeometry relative="1" as="geometry">
            <mxPoint x="365" y="725" as="targetPoint" />
          </mxGeometry>
        </mxCell>
        <mxCell id="oJWKIMN6-Hw991Id3Hjh-5" value="A" style="ellipse;whiteSpace=wrap;html=1;aspect=fixed;fontFamily=Open Sans;fontSource=https%3A%2F%2Ffonts.googleapis.com%2Fcss%3Ffamily%3DOpen%2BSans;fontSize=11;fontColor=#000000;fontStyle=0;strokeWidth=1;spacingBottom=2;" parent="1" vertex="1">
          <mxGeometry x="392" y="737" width="16" height="16" as="geometry" />
        </mxCell>
        <mxCell id="oJWKIMN6-Hw991Id3Hjh-11" style="edgeStyle=orthogonalEdgeStyle;rounded=0;orthogonalLoop=1;jettySize=auto;html=1;exitX=0.5;exitY=1;exitDx=0;exitDy=0;entryX=1;entryY=0.5;entryDx=0;entryDy=0;fontFamily=Open Sans;fontSource=https%3A%2F%2Ffonts.googleapis.com%2Fcss%3Ffamily%3DOpen%2BSans;fontSize=12;fontColor=#000000;endArrow=open;endFill=0;startSize=4;endSize=4;strokeWidth=0.5;" parent="1" source="oJWKIMN6-Hw991Id3Hjh-6" target="oJWKIMN6-Hw991Id3Hjh-5" edge="1">
          <mxGeometry relative="1" as="geometry">
            <Array as="points">
              <mxPoint x="440" y="745" />
            </Array>
          </mxGeometry>
        </mxCell>
        <mxCell id="oJWKIMN6-Hw991Id3Hjh-15" style="edgeStyle=orthogonalEdgeStyle;rounded=0;orthogonalLoop=1;jettySize=auto;html=1;exitX=1;exitY=0.5;exitDx=0;exitDy=0;entryX=0;entryY=0.5;entryDx=0;entryDy=0;labelBackgroundColor=none;fontFamily=Open Sans;fontSource=https%3A%2F%2Ffonts.googleapis.com%2Fcss%3Ffamily%3DOpen%2BSans;fontSize=8;fontColor=#000000;endArrow=open;endFill=0;startSize=4;endSize=4;strokeWidth=0.5;" parent="1" source="oJWKIMN6-Hw991Id3Hjh-6" target="oJWKIMN6-Hw991Id3Hjh-8" edge="1">
          <mxGeometry relative="1" as="geometry" />
        </mxCell>
        <mxCell id="oJWKIMN6-Hw991Id3Hjh-6" value="C" style="ellipse;whiteSpace=wrap;html=1;aspect=fixed;fontFamily=Open Sans;fontSource=https%3A%2F%2Ffonts.googleapis.com%2Fcss%3Ffamily%3DOpen%2BSans;fontSize=11;fontColor=#000000;fontStyle=0;strokeWidth=1;spacingBottom=2;" parent="1" vertex="1">
          <mxGeometry x="432" y="712" width="16" height="16" as="geometry" />
        </mxCell>
        <mxCell id="oJWKIMN6-Hw991Id3Hjh-10" value="x" style="edgeStyle=orthogonalEdgeStyle;rounded=0;orthogonalLoop=1;jettySize=auto;html=1;exitX=1;exitY=0.5;exitDx=0;exitDy=0;entryX=0;entryY=0.5;entryDx=0;entryDy=0;fontFamily=Open Sans;fontSource=https%3A%2F%2Ffonts.googleapis.com%2Fcss%3Ffamily%3DOpen%2BSans;fontSize=8;fontColor=#000000;endArrow=open;endFill=0;startSize=4;endSize=4;strokeWidth=0.5;labelBackgroundColor=none;" parent="1" source="oJWKIMN6-Hw991Id3Hjh-7" target="oJWKIMN6-Hw991Id3Hjh-6" edge="1">
          <mxGeometry x="-0.0909" y="6" relative="1" as="geometry">
            <mxPoint as="offset" />
          </mxGeometry>
        </mxCell>
        <mxCell id="oJWKIMN6-Hw991Id3Hjh-7" value="&lt;span style=&quot;font-size: 6px&quot;&gt;\(\int dt\)&lt;/span&gt;" style="rounded=0;whiteSpace=wrap;html=1;fontFamily=Roboto Condensed;fontSource=https%3A%2F%2Ffonts.googleapis.com%2Fcss%3Ffamily%3DRoboto%2BCondensed;fontSize=7;verticalAlign=middle;align=center;spacingTop=1;fontStyle=0;spacingLeft=0;strokeWidth=0.5;spacingBottom=1;" parent="1" vertex="1">
          <mxGeometry x="390" y="710" width="20" height="20" as="geometry" />
        </mxCell>
        <mxCell id="oJWKIMN6-Hw991Id3Hjh-16" value="y" style="edgeStyle=orthogonalEdgeStyle;rounded=0;orthogonalLoop=1;jettySize=auto;html=1;exitX=1;exitY=0.5;exitDx=0;exitDy=0;labelBackgroundColor=none;fontFamily=Open Sans;fontSource=https%3A%2F%2Ffonts.googleapis.com%2Fcss%3Ffamily%3DOpen%2BSans;fontSize=8;fontColor=#000000;endArrow=open;endFill=0;startSize=4;endSize=4;strokeWidth=0.5;" parent="1" source="oJWKIMN6-Hw991Id3Hjh-8" edge="1">
          <mxGeometry y="7" relative="1" as="geometry">
            <mxPoint x="490" y="720" as="targetPoint" />
            <mxPoint as="offset" />
          </mxGeometry>
        </mxCell>
        <mxCell id="oJWKIMN6-Hw991Id3Hjh-8" value="+" style="ellipse;whiteSpace=wrap;html=1;aspect=fixed;fontFamily=Open Sans;fontSource=https%3A%2F%2Ffonts.googleapis.com%2Fcss%3Ffamily%3DOpen%2BSans;fontSize=9;fontColor=#000000;strokeWidth=0.5;" parent="1" vertex="1">
          <mxGeometry x="460" y="715" width="10" height="10" as="geometry" />
        </mxCell>
        <mxCell id="oJWKIMN6-Hw991Id3Hjh-17" value="u" style="edgeStyle=orthogonalEdgeStyle;rounded=0;orthogonalLoop=1;jettySize=auto;html=1;entryX=0;entryY=0.5;entryDx=0;entryDy=0;fontFamily=Open Sans;fontSource=https%3A%2F%2Ffonts.googleapis.com%2Fcss%3Ffamily%3DOpen%2BSans;fontSize=8;fontColor=#000000;endArrow=open;endFill=0;startSize=4;endSize=4;strokeWidth=0.5;labelBackgroundColor=none;" parent="1" target="oJWKIMN6-Hw991Id3Hjh-2" edge="1">
          <mxGeometry x="-0.7059" y="6" relative="1" as="geometry">
            <mxPoint x="300" y="720" as="sourcePoint" />
            <mxPoint x="295.00000000000216" y="720.0000000000001" as="targetPoint" />
            <mxPoint as="offset" />
          </mxGeometry>
        </mxCell>
        <mxCell id="oJWKIMN6-Hw991Id3Hjh-18" style="edgeStyle=orthogonalEdgeStyle;rounded=0;orthogonalLoop=1;jettySize=auto;html=1;entryX=0;entryY=0.5;entryDx=0;entryDy=0;fontFamily=Open Sans;fontSource=https%3A%2F%2Ffonts.googleapis.com%2Fcss%3Ffamily%3DOpen%2BSans;fontSize=12;fontColor=#000000;endArrow=open;endFill=0;startSize=4;endSize=4;strokeWidth=0.5;" parent="1" target="oJWKIMN6-Hw991Id3Hjh-4" edge="1">
          <mxGeometry relative="1" as="geometry">
            <mxPoint x="320" y="720" as="sourcePoint" />
            <mxPoint x="340.00000000000216" y="720.0000000000001" as="targetPoint" />
            <Array as="points">
              <mxPoint x="320" y="695" />
            </Array>
          </mxGeometry>
        </mxCell>
        <mxCell id="oJWKIMN6-Hw991Id3Hjh-19" value="" style="ellipse;whiteSpace=wrap;html=1;aspect=fixed;fontFamily=Open Sans;fontSource=https%3A%2F%2Ffonts.googleapis.com%2Fcss%3Ffamily%3DOpen%2BSans;fontSize=8;fontColor=#000000;strokeWidth=0.5;fillColor=#000000;" parent="1" vertex="1">
          <mxGeometry x="319" y="719" width="2" height="2" as="geometry" />
        </mxCell>
        <mxCell id="-3zsU6iHSjf4ZmtfOCPX-2" value="" style="endArrow=none;html=1;rounded=0;startArrow=oval;startFill=0;fillColor=#f8cecc;strokeColor=#b85450;" parent="1" edge="1">
          <mxGeometry width="50" height="50" relative="1" as="geometry">
            <mxPoint x="560" y="600" as="sourcePoint" />
            <mxPoint x="560" y="560" as="targetPoint" />
          </mxGeometry>
        </mxCell>
        <mxCell id="-3zsU6iHSjf4ZmtfOCPX-3" value="" style="endArrow=oval;html=1;rounded=0;startArrow=oval;startFill=0;endFill=1;endSize=3;fillColor=#f8cecc;strokeColor=#b85450;" parent="1" edge="1">
          <mxGeometry width="50" height="50" relative="1" as="geometry">
            <mxPoint x="560" y="520" as="sourcePoint" />
            <mxPoint x="560" y="560" as="targetPoint" />
          </mxGeometry>
        </mxCell>
        <mxCell id="-3zsU6iHSjf4ZmtfOCPX-6" value="" style="endArrow=openThin;html=1;endSize=3;curved=1;endFill=0;fillColor=#ffe6cc;strokeColor=#d79b00;" parent="1" edge="1">
          <mxGeometry width="50" height="50" relative="1" as="geometry">
            <mxPoint x="525" y="570" as="sourcePoint" />
            <mxPoint x="550" y="596" as="targetPoint" />
            <Array as="points">
              <mxPoint x="535" y="585" />
            </Array>
          </mxGeometry>
        </mxCell>
        <mxCell id="-3zsU6iHSjf4ZmtfOCPX-7" value="" style="endArrow=openThin;html=1;endSize=3;curved=1;endFill=0;fillColor=#ffe6cc;strokeColor=#d79b00;" parent="1" edge="1">
          <mxGeometry width="50" height="50" relative="1" as="geometry">
            <mxPoint x="594" y="540" as="sourcePoint" />
            <mxPoint x="569" y="595" as="targetPoint" />
            <Array as="points">
              <mxPoint x="600" y="560" />
              <mxPoint x="585" y="590" />
            </Array>
          </mxGeometry>
        </mxCell>
        <mxCell id="-3zsU6iHSjf4ZmtfOCPX-9" value="" style="ellipse;whiteSpace=wrap;html=1;aspect=fixed;fillColor=#1A1A1A;" parent="1" vertex="1">
          <mxGeometry x="558" y="558" width="4" height="4" as="geometry" />
        </mxCell>
        <mxCell id="-3zsU6iHSjf4ZmtfOCPX-11" value="stabil" style="text;html=1;strokeColor=none;fillColor=none;align=left;verticalAlign=middle;whiteSpace=wrap;rounded=0;fontFamily=Open Sans Condensed;fontSource=https%3A%2F%2Ffonts.googleapis.com%2Fcss%3Ffamily%3DOpen%2BSans%2BCondensed;spacingLeft=3;" parent="1" vertex="1">
          <mxGeometry x="610" y="510" width="40" height="20" as="geometry" />
        </mxCell>
        <mxCell id="-3zsU6iHSjf4ZmtfOCPX-12" value="" style="endArrow=openThin;html=1;endSize=3;curved=1;endFill=0;fillColor=#d5e8d4;strokeColor=#82b366;exitX=0;exitY=0.5;exitDx=0;exitDy=0;strokeWidth=0.5;" parent="1" source="-3zsU6iHSjf4ZmtfOCPX-11" edge="1">
          <mxGeometry width="50" height="50" relative="1" as="geometry">
            <mxPoint x="535" y="580" as="sourcePoint" />
            <mxPoint x="567" y="520" as="targetPoint" />
            <Array as="points">
              <mxPoint x="590" y="514" />
            </Array>
          </mxGeometry>
        </mxCell>
        <mxCell id="-3zsU6iHSjf4ZmtfOCPX-13" value="asymptotisch&lt;br&gt;stabil" style="text;html=1;strokeColor=none;fillColor=none;align=left;verticalAlign=middle;whiteSpace=wrap;rounded=0;fontFamily=Open Sans Condensed;fontSource=https%3A%2F%2Ffonts.googleapis.com%2Fcss%3Ffamily%3DOpen%2BSans%2BCondensed;spacingLeft=3;" parent="1" vertex="1">
          <mxGeometry x="610" y="544" width="60" height="32" as="geometry" />
        </mxCell>
        <mxCell id="-3zsU6iHSjf4ZmtfOCPX-15" value="" style="endArrow=openThin;html=1;endSize=3;curved=1;endFill=0;fillColor=#d5e8d4;strokeColor=#82b366;exitX=0;exitY=0.5;exitDx=0;exitDy=0;strokeWidth=0.5;" parent="1" source="-3zsU6iHSjf4ZmtfOCPX-13" edge="1">
          <mxGeometry width="50" height="50" relative="1" as="geometry">
            <mxPoint x="610" y="558" as="sourcePoint" />
            <mxPoint x="527" y="556" as="targetPoint" />
            <Array as="points">
              <mxPoint x="590" y="552" />
            </Array>
          </mxGeometry>
        </mxCell>
        <mxCell id="-3zsU6iHSjf4ZmtfOCPX-16" value="" style="endArrow=openThin;html=1;endSize=3;curved=1;endFill=0;fillColor=#d5e8d4;strokeColor=#82b366;exitX=0;exitY=0.5;exitDx=0;exitDy=0;strokeWidth=0.5;" parent="1" source="-3zsU6iHSjf4ZmtfOCPX-13" edge="1">
          <mxGeometry width="50" height="50" relative="1" as="geometry">
            <mxPoint x="610" y="550" as="sourcePoint" />
            <mxPoint x="595" y="534" as="targetPoint" />
            <Array as="points">
              <mxPoint x="601" y="556" />
              <mxPoint x="605" y="535" />
            </Array>
          </mxGeometry>
        </mxCell>
        <mxCell id="JnsWyKzn2ELdosJl2_cm-6" value="" style="edgeStyle=orthogonalEdgeStyle;rounded=0;orthogonalLoop=1;jettySize=auto;html=1;fontFamily=Open Sans;fontSource=https%3A%2F%2Ffonts.googleapis.com%2Fcss%3Ffamily%3DOpen%2BSans;" edge="1" parent="1" source="JnsWyKzn2ELdosJl2_cm-1" target="JnsWyKzn2ELdosJl2_cm-2">
          <mxGeometry relative="1" as="geometry" />
        </mxCell>
        <mxCell id="JnsWyKzn2ELdosJl2_cm-7" value="B" style="edgeLabel;html=1;align=center;verticalAlign=middle;resizable=0;points=[];fontFamily=Open Sans;fontSource=https%3A%2F%2Ffonts.googleapis.com%2Fcss%3Ffamily%3DOpen%2BSans;" vertex="1" connectable="0" parent="JnsWyKzn2ELdosJl2_cm-6">
          <mxGeometry x="-0.0111" relative="1" as="geometry">
            <mxPoint y="-10" as="offset" />
          </mxGeometry>
        </mxCell>
        <mxCell id="JnsWyKzn2ELdosJl2_cm-1" value="+" style="ellipse;whiteSpace=wrap;html=1;aspect=fixed;fontFamily=Open Sans;fontSize=9;fontColor=#000000;strokeWidth=1;fontSource=https%3A%2F%2Ffonts.googleapis.com%2Fcss%3Ffamily%3DOpen%2BSans;" vertex="1" parent="1">
          <mxGeometry x="160" y="880" width="20" height="20" as="geometry" />
        </mxCell>
        <mxCell id="JnsWyKzn2ELdosJl2_cm-4" value="" style="edgeStyle=orthogonalEdgeStyle;rounded=0;orthogonalLoop=1;jettySize=auto;html=1;strokeWidth=1;fontFamily=Open Sans;fontSource=https%3A%2F%2Ffonts.googleapis.com%2Fcss%3Ffamily%3DOpen%2BSans;" edge="1" parent="1" source="JnsWyKzn2ELdosJl2_cm-2" target="JnsWyKzn2ELdosJl2_cm-3">
          <mxGeometry relative="1" as="geometry" />
        </mxCell>
        <mxCell id="JnsWyKzn2ELdosJl2_cm-5" value="C" style="edgeLabel;html=1;align=center;verticalAlign=middle;resizable=0;points=[];fontFamily=Open Sans;fontSource=https%3A%2F%2Ffonts.googleapis.com%2Fcss%3Ffamily%3DOpen%2BSans;" vertex="1" connectable="0" parent="JnsWyKzn2ELdosJl2_cm-4">
          <mxGeometry x="-0.2222" y="1" relative="1" as="geometry">
            <mxPoint x="7" y="-9" as="offset" />
          </mxGeometry>
        </mxCell>
        <mxCell id="JnsWyKzn2ELdosJl2_cm-2" value="+" style="ellipse;whiteSpace=wrap;html=1;aspect=fixed;fontFamily=Open Sans;fontSize=9;fontColor=#000000;strokeWidth=1;fontSource=https%3A%2F%2Ffonts.googleapis.com%2Fcss%3Ffamily%3DOpen%2BSans;" vertex="1" parent="1">
          <mxGeometry x="240" y="880" width="20" height="20" as="geometry" />
        </mxCell>
        <mxCell id="JnsWyKzn2ELdosJl2_cm-19" value="" style="edgeStyle=orthogonalEdgeStyle;rounded=0;orthogonalLoop=1;jettySize=auto;html=1;fontFamily=Open Sans;fontSource=https%3A%2F%2Ffonts.googleapis.com%2Fcss%3Ffamily%3DOpen%2BSans;" edge="1" parent="1" source="JnsWyKzn2ELdosJl2_cm-3" target="JnsWyKzn2ELdosJl2_cm-10">
          <mxGeometry relative="1" as="geometry" />
        </mxCell>
        <mxCell id="JnsWyKzn2ELdosJl2_cm-21" value="D" style="edgeLabel;html=1;align=center;verticalAlign=middle;resizable=0;points=[];fontFamily=Open Sans;fontSource=https%3A%2F%2Ffonts.googleapis.com%2Fcss%3Ffamily%3DOpen%2BSans;" vertex="1" connectable="0" parent="JnsWyKzn2ELdosJl2_cm-19">
          <mxGeometry x="-0.15" y="-1" relative="1" as="geometry">
            <mxPoint x="1" y="-11" as="offset" />
          </mxGeometry>
        </mxCell>
        <mxCell id="JnsWyKzn2ELdosJl2_cm-3" value="+" style="ellipse;whiteSpace=wrap;html=1;aspect=fixed;fontFamily=Open Sans;fontSize=9;fontColor=#000000;strokeWidth=1;fontSource=https%3A%2F%2Ffonts.googleapis.com%2Fcss%3Ffamily%3DOpen%2BSans;" vertex="1" parent="1">
          <mxGeometry x="320" y="880" width="20" height="20" as="geometry" />
        </mxCell>
        <mxCell id="JnsWyKzn2ELdosJl2_cm-8" value="" style="endArrow=classic;html=1;rounded=0;entryX=0;entryY=0.5;entryDx=0;entryDy=0;fontFamily=Open Sans;fontSource=https%3A%2F%2Ffonts.googleapis.com%2Fcss%3Ffamily%3DOpen%2BSans;" edge="1" parent="1" target="JnsWyKzn2ELdosJl2_cm-1">
          <mxGeometry width="50" height="50" relative="1" as="geometry">
            <mxPoint x="120" y="890" as="sourcePoint" />
            <mxPoint x="220" y="830" as="targetPoint" />
          </mxGeometry>
        </mxCell>
        <mxCell id="JnsWyKzn2ELdosJl2_cm-20" value="A" style="edgeLabel;html=1;align=center;verticalAlign=middle;resizable=0;points=[];fontFamily=Open Sans;fontSource=https%3A%2F%2Ffonts.googleapis.com%2Fcss%3Ffamily%3DOpen%2BSans;" vertex="1" connectable="0" parent="JnsWyKzn2ELdosJl2_cm-8">
          <mxGeometry x="0.3833" y="-1" relative="1" as="geometry">
            <mxPoint x="-8" y="-11" as="offset" />
          </mxGeometry>
        </mxCell>
        <mxCell id="JnsWyKzn2ELdosJl2_cm-9" value="u" style="rounded=0;whiteSpace=wrap;html=1;fontFamily=Open Sans;fontSource=https%3A%2F%2Ffonts.googleapis.com%2Fcss%3Ffamily%3DOpen%2BSans;strokeColor=none;" vertex="1" parent="1">
          <mxGeometry x="100" y="880" width="20" height="20" as="geometry" />
        </mxCell>
        <mxCell id="JnsWyKzn2ELdosJl2_cm-10" value="y" style="rounded=0;whiteSpace=wrap;html=1;fontFamily=Open Sans;fontSource=https%3A%2F%2Ffonts.googleapis.com%2Fcss%3Ffamily%3DOpen%2BSans;strokeColor=none;" vertex="1" parent="1">
          <mxGeometry x="380" y="880" width="20" height="20" as="geometry" />
        </mxCell>
        <mxCell id="JnsWyKzn2ELdosJl2_cm-11" value="" style="endArrow=classic;html=1;rounded=0;exitX=0.5;exitY=1;exitDx=0;exitDy=0;entryX=0.5;entryY=1;entryDx=0;entryDy=0;edgeStyle=orthogonalEdgeStyle;curved=1;fontFamily=Open Sans;fontSource=https%3A%2F%2Ffonts.googleapis.com%2Fcss%3Ffamily%3DOpen%2BSans;" edge="1" parent="1" source="JnsWyKzn2ELdosJl2_cm-1" target="JnsWyKzn2ELdosJl2_cm-3">
          <mxGeometry width="50" height="50" relative="1" as="geometry">
            <mxPoint x="240" y="880" as="sourcePoint" />
            <mxPoint x="290" y="830" as="targetPoint" />
            <Array as="points">
              <mxPoint x="170" y="930" />
              <mxPoint x="330" y="930" />
            </Array>
          </mxGeometry>
        </mxCell>
        <mxCell id="JnsWyKzn2ELdosJl2_cm-12" value="-B" style="edgeLabel;html=1;align=center;verticalAlign=middle;resizable=0;points=[];fontFamily=Open Sans;fontSource=https%3A%2F%2Ffonts.googleapis.com%2Fcss%3Ffamily%3DOpen%2BSans;" vertex="1" connectable="0" parent="JnsWyKzn2ELdosJl2_cm-11">
          <mxGeometry x="0.2152" relative="1" as="geometry">
            <mxPoint x="-24" y="-10" as="offset" />
          </mxGeometry>
        </mxCell>
        <mxCell id="JnsWyKzn2ELdosJl2_cm-14" value="" style="endArrow=classic;html=1;exitX=0.5;exitY=0;exitDx=0;exitDy=0;entryX=0.5;entryY=0;entryDx=0;entryDy=0;curved=1;fontFamily=Open Sans;fontSource=https%3A%2F%2Ffonts.googleapis.com%2Fcss%3Ffamily%3DOpen%2BSans;" edge="1" parent="1" source="JnsWyKzn2ELdosJl2_cm-2" target="JnsWyKzn2ELdosJl2_cm-1">
          <mxGeometry width="50" height="50" relative="1" as="geometry">
            <mxPoint x="240" y="880" as="sourcePoint" />
            <mxPoint x="290" y="830" as="targetPoint" />
            <Array as="points">
              <mxPoint x="240" y="850" />
              <mxPoint x="210" y="840" />
              <mxPoint x="180" y="850" />
            </Array>
          </mxGeometry>
        </mxCell>
        <mxCell id="JnsWyKzn2ELdosJl2_cm-15" value="-CF" style="edgeLabel;html=1;align=center;verticalAlign=middle;resizable=0;points=[];fontFamily=Open Sans;fontSource=https%3A%2F%2Ffonts.googleapis.com%2Fcss%3Ffamily%3DOpen%2BSans;" vertex="1" connectable="0" parent="JnsWyKzn2ELdosJl2_cm-14">
          <mxGeometry x="-0.1033" y="3" relative="1" as="geometry">
            <mxPoint x="-5" y="-15" as="offset" />
          </mxGeometry>
        </mxCell>
        <mxCell id="JnsWyKzn2ELdosJl2_cm-16" value="" style="endArrow=classic;html=1;exitX=0.5;exitY=0;exitDx=0;exitDy=0;entryX=0.5;entryY=0;entryDx=0;entryDy=0;curved=1;fontFamily=Open Sans;fontSource=https%3A%2F%2Ffonts.googleapis.com%2Fcss%3Ffamily%3DOpen%2BSans;" edge="1" parent="1">
          <mxGeometry width="50" height="50" relative="1" as="geometry">
            <mxPoint x="330" y="880" as="sourcePoint" />
            <mxPoint x="250" y="880" as="targetPoint" />
            <Array as="points">
              <mxPoint x="320" y="850" />
              <mxPoint x="290" y="840" />
              <mxPoint x="260" y="850" />
            </Array>
          </mxGeometry>
        </mxCell>
        <mxCell id="JnsWyKzn2ELdosJl2_cm-18" value="DE" style="edgeLabel;html=1;align=center;verticalAlign=middle;resizable=0;points=[];fontFamily=Open Sans;fontSource=https%3A%2F%2Ffonts.googleapis.com%2Fcss%3Ffamily%3DOpen%2BSans;" vertex="1" connectable="0" parent="JnsWyKzn2ELdosJl2_cm-16">
          <mxGeometry x="-0.075" y="1" relative="1" as="geometry">
            <mxPoint x="-4" y="-12" as="offset" />
          </mxGeometry>
        </mxCell>
      </root>
    </mxGraphModel>
  </diagram>
</mxfile>
